<svg width="50" height="50" viewBox="0 0 50 50" fill="none" xmlns="http://www.w3.org/2000/svg">
<path d="M6.25 20.3125L9.375 23.4375L12.5 20.3125" stroke="#4F8F9B" stroke-width="2" stroke-linejoin="round"/>
<path d="M29.6875 8.59375H14.8438C11.8203 8.59375 9.375 11.0391 9.375 14.0625V23.4375" stroke="#4F8F9B" stroke-width="2" stroke-linejoin="round"/>
<path d="M43.75 28.125L40.625 25L37.5 28.125" stroke="#4F8F9B" stroke-width="2" stroke-linejoin="round"/>
<path d="M20.3125 39.8438H35.1562C38.1797 39.8438 40.625 37.3984 40.625 34.375V25" stroke="#4F8F9B" stroke-width="2" stroke-linejoin="round"/>
<path d="M21.0938 20.7031C21.0938 23.4375 22.625 25.7812 25 25.7812C27.375 25.7812 28.9062 23.4375 28.9062 20.7031C28.9062 17.9688 28.125 16.4062 25 16.4062C21.875 16.4062 21.0938 17.9688 21.0938 20.7031Z" stroke="#4F8F9B" stroke-width="2" stroke-miterlimit="10"/>
<path d="M22.6562 25L17.1875 28.125V29.6875C17.1875 30.9844 17.9688 32.0312 18.75 32.0312H31.25C32.0312 32.0312 32.8125 30.9844 32.8125 29.6875V28.125L27.3438 25" stroke="#4F8F9B" stroke-width="2" stroke-miterlimit="10"/>
<path d="M4.6875 37.8906C4.6875 40.625 6.21875 42.9688 8.59375 42.9688C10.9687 42.9688 12.5 40.625 12.5 37.8906C12.5 35.1562 11.7188 33.5938 8.59375 33.5938C5.46875 33.5938 4.6875 35.1562 4.6875 37.8906Z" stroke="#4F8F9B" stroke-width="2" stroke-miterlimit="10"/>
<path d="M6.25 42.1875L0.78125 45.3125V46.875C0.78125 48.1719 1.5625 49.2188 2.34375 49.2188H14.8438C15.625 49.2188 16.4062 48.1719 16.4062 46.875V45.3125L10.9375 42.1875" stroke="#4F8F9B" stroke-width="2" stroke-miterlimit="10"/>
<path d="M37.5 5.07812C37.5 7.8125 39.0313 10.1562 41.4062 10.1562C43.7812 10.1562 45.3125 7.8125 45.3125 5.07812C45.3125 2.34375 44.5312 0.78125 41.4062 0.78125C38.2812 0.78125 37.5 2.34375 37.5 5.07812Z" stroke="#4F8F9B" stroke-width="2" stroke-miterlimit="10"/>
<path d="M39.0625 9.375L33.5938 12.5V14.0625C33.5938 15.3594 34.375 16.4062 35.1562 16.4062H47.6562C48.4375 16.4062 49.2188 15.3594 49.2188 14.0625V12.5L43.75 9.375" stroke="#4F8F9B" stroke-width="2" stroke-miterlimit="10"/>
</svg>
