<svg width="240" height="59" viewBox="0 0 240 59" fill="none" xmlns="http://www.w3.org/2000/svg">
<path d="M17.8884 56.9434C18.8422 56.9434 19.5145 56.5527 20.0778 55.9622L20.7228 56.5436C20.0233 57.3249 19.1784 57.8427 17.8702 57.8427C15.9624 57.8427 14.4089 56.3801 14.4089 54.218C14.4089 52.2103 15.8171 50.5932 17.7339 50.5932C19.7871 50.5932 20.9681 52.2284 20.9681 54.2725C20.9681 54.3633 20.9681 54.4723 20.959 54.6359H15.4628C15.6081 56.0985 16.6801 56.9434 17.9065 56.9434M19.9324 53.8092C19.8143 52.5464 19.0875 51.4744 17.7158 51.4744C16.5257 51.4744 15.6081 52.4646 15.4628 53.8092H19.9324Z" fill="white"/>
<path d="M17.8884 56.9434C18.8422 56.9434 19.5145 56.5527 20.0778 55.9622L20.7228 56.5436C20.0233 57.3249 19.1784 57.8427 17.8702 57.8427C15.9624 57.8427 14.4089 56.3801 14.4089 54.218C14.4089 52.2103 15.8171 50.5932 17.7339 50.5932C19.7871 50.5932 20.9681 52.2284 20.9681 54.2725C20.9681 54.3633 20.9681 54.4723 20.959 54.6359H15.4628C15.6081 56.0985 16.6801 56.9434 17.9065 56.9434M19.9324 53.8092C19.8143 52.5464 19.0875 51.4744 17.7158 51.4744C16.5257 51.4744 15.6081 52.4646 15.4628 53.8092H19.9324Z" stroke="white" stroke-width="0.5"/>
<path d="M22.3308 55.6716V55.6443C22.3308 54.1544 23.5391 53.3822 25.2924 53.3822C26.1827 53.3822 26.7914 53.5003 27.4091 53.682V53.464C27.4091 52.2285 26.6551 51.5835 25.356 51.5835C24.5384 51.5835 23.8934 51.7833 23.2484 52.0831L22.9395 51.2383C23.7026 50.893 24.4385 50.6478 25.465 50.6478C26.4916 50.6478 27.2093 50.9203 27.7089 51.4109C28.1904 51.8924 28.4357 52.5646 28.4357 53.4458V57.6884H27.4182V56.6527C26.9367 57.2705 26.1464 57.8337 24.9199 57.8337C23.6208 57.8337 22.3308 57.0979 22.3308 55.6716ZM27.4273 55.1356V54.4906C26.9186 54.3452 26.2463 54.1998 25.4014 54.1998C24.1114 54.1998 23.3755 54.7631 23.3755 55.5989V55.6261C23.3755 56.4983 24.1841 57.007 25.1198 57.007C26.3917 57.007 27.4273 56.2439 27.4273 55.1447" fill="white"/>
<path d="M22.3308 55.6716V55.6443C22.3308 54.1544 23.5391 53.3822 25.2924 53.3822C26.1827 53.3822 26.7914 53.5003 27.4091 53.682V53.464C27.4091 52.2285 26.6551 51.5835 25.356 51.5835C24.5384 51.5835 23.8934 51.7833 23.2484 52.0831L22.9395 51.2383C23.7026 50.893 24.4385 50.6478 25.465 50.6478C26.4916 50.6478 27.2093 50.9203 27.7089 51.4109C28.1904 51.8924 28.4357 52.5646 28.4357 53.4458V57.6884H27.4182V56.6527C26.9367 57.2705 26.1464 57.8337 24.9199 57.8337C23.6208 57.8337 22.3308 57.0979 22.3308 55.6716M27.4273 55.1356V54.4906C26.9186 54.3452 26.2463 54.1998 25.4014 54.1998C24.1114 54.1998 23.3755 54.7631 23.3755 55.5989V55.6261C23.3755 56.4983 24.1841 57.007 25.1198 57.007C26.3917 57.007 27.4273 56.2439 27.4273 55.1447" stroke="white" stroke-width="0.5"/>
<path d="M30.6977 50.7476H31.7334V51.9559C32.1876 51.2019 32.9144 50.6023 34.1045 50.6023C35.7852 50.6023 36.7572 51.7288 36.7572 53.3822V57.6883H35.7216V53.6365C35.7216 52.3465 35.022 51.5471 33.8047 51.5471C32.5874 51.5471 31.7243 52.4192 31.7243 53.7183V57.6883H30.6887V50.7567L30.6977 50.7476Z" fill="white" stroke="white" stroke-width="0.5"/>
<path d="M42.1172 48.2947H46.1508C47.3045 48.2947 48.2312 48.64 48.8217 49.2305C49.2759 49.6847 49.5484 50.3479 49.5484 51.0837V51.111C49.5484 52.6645 48.4764 53.582 46.9956 53.8455L49.8755 57.6792H48.5764L45.851 54.0272H43.171V57.6792H42.1081V48.2857L42.1172 48.2947ZM46.0599 53.0824C47.468 53.0824 48.4764 52.3556 48.4764 51.1473V51.1201C48.4764 49.9663 47.5952 49.2668 46.0781 49.2668H43.1801V53.0733H46.0599V53.0824Z" fill="white" stroke="white" stroke-width="0.5"/>
<path d="M54.645 56.9434C55.5988 56.9434 56.2711 56.5527 56.8344 55.9622L57.4794 56.5436C56.7798 57.3249 55.935 57.8427 54.6268 57.8427C52.719 57.8427 51.1655 56.3801 51.1655 54.218C51.1655 52.2103 52.5737 50.5932 54.4905 50.5932C56.5437 50.5932 57.7247 52.2284 57.7247 54.2725C57.7247 54.3633 57.7247 54.4723 57.7065 54.6359H52.2103C52.3556 56.0985 53.4276 56.9434 54.654 56.9434M56.6799 53.8092C56.5618 52.5464 55.835 51.4744 54.4633 51.4744C53.2732 51.4744 52.3556 52.4646 52.2103 53.8092H56.6799Z" fill="white"/>
<path d="M54.645 56.9434C55.5988 56.9434 56.2711 56.5527 56.8344 55.9622L57.4794 56.5436C56.7798 57.3249 55.935 57.8427 54.6268 57.8427C52.719 57.8427 51.1655 56.3801 51.1655 54.218C51.1655 52.2103 52.5737 50.5932 54.4905 50.5932C56.5437 50.5932 57.7247 52.2284 57.7247 54.2725C57.7247 54.3633 57.7247 54.4723 57.7065 54.6359H52.2103C52.3556 56.0985 53.4276 56.9434 54.654 56.9434M56.6799 53.8092C56.5618 52.5464 55.835 51.4744 54.4633 51.4744C53.2732 51.4744 52.3556 52.4646 52.2103 53.8092H56.6799Z" stroke="white" stroke-width="0.5"/>
<path d="M59.0328 56.798L59.5597 56.0622C60.3138 56.6254 61.1405 56.9434 61.9581 56.9434C62.7757 56.9434 63.3935 56.5164 63.3935 55.8441V55.8169C63.3935 55.1174 62.5758 54.8539 61.6674 54.5995C60.5772 54.2906 59.369 53.9182 59.369 52.6372V52.61C59.369 51.4199 60.3592 50.6295 61.731 50.6295C62.5759 50.6295 63.5116 50.9293 64.2293 51.3926L63.7569 52.1739C63.1118 51.756 62.376 51.5017 61.7037 51.5017C60.8861 51.5017 60.3592 51.9286 60.3592 52.51V52.5373C60.3592 53.1914 61.2132 53.4458 62.1398 53.7274C63.2118 54.0454 64.3655 54.4632 64.3655 55.7078V55.7351C64.3655 57.0524 63.2754 57.8155 61.8945 57.8155C60.9043 57.8155 59.805 57.4249 59.0237 56.798" fill="white"/>
<path d="M59.0328 56.798L59.5597 56.0622C60.3138 56.6254 61.1405 56.9434 61.9581 56.9434C62.7757 56.9434 63.3935 56.5164 63.3935 55.8441V55.8169C63.3935 55.1174 62.5758 54.8539 61.6674 54.5995C60.5772 54.2906 59.369 53.9182 59.369 52.6372V52.61C59.369 51.4199 60.3592 50.6295 61.731 50.6295C62.5759 50.6295 63.5116 50.9293 64.2293 51.3926L63.7569 52.1739C63.1118 51.756 62.376 51.5017 61.7037 51.5017C60.8861 51.5017 60.3592 51.9286 60.3592 52.51V52.5373C60.3592 53.1914 61.2132 53.4458 62.1398 53.7274C63.2118 54.0454 64.3655 54.4632 64.3655 55.7078V55.7351C64.3655 57.0524 63.2754 57.8155 61.8945 57.8155C60.9043 57.8155 59.805 57.4249 59.0237 56.798" stroke="white" stroke-width="0.5"/>
<path d="M65.9463 54.2452V54.218C65.9463 52.2557 67.4725 50.5932 69.5711 50.5932C71.6696 50.5932 73.1777 52.2284 73.1777 54.1907V54.218C73.1777 56.1712 71.6333 57.8427 69.5438 57.8427C67.4543 57.8427 65.9463 56.2075 65.9463 54.2452ZM72.1148 54.2452V54.218C72.1148 52.7281 70.9974 51.5107 69.5347 51.5107C68.0721 51.5107 67.0001 52.7281 67.0001 54.1907V54.218C67.0001 55.7079 68.0994 56.9161 69.562 56.9161C71.0246 56.9161 72.1148 55.7079 72.1148 54.2452Z" fill="white" stroke="white" stroke-width="0.5"/>
<path d="M75.0128 55.0537V50.7476H76.0484V54.7994C76.0484 56.0894 76.7479 56.8889 77.9653 56.8889C79.1826 56.8889 80.0457 56.0167 80.0457 54.7176V50.7476H81.0631V57.6792H80.0457V56.4709C79.5733 57.225 78.8646 57.8246 77.6746 57.8246C75.9939 57.8246 75.0218 56.6981 75.0218 55.0447" fill="white"/>
<path d="M75.0128 55.0537V50.7476H76.0484V54.7994C76.0484 56.0894 76.7479 56.8889 77.9653 56.8889C79.1826 56.8889 80.0457 56.0167 80.0457 54.7176V50.7476H81.0631V57.6792H80.0457V56.4709C79.5733 57.225 78.8646 57.8246 77.6746 57.8246C75.9939 57.8246 75.0218 56.6981 75.0218 55.0447" stroke="white" stroke-width="0.5"/>
<path d="M83.4706 50.7476H84.5063V52.5554C85.015 51.4017 86.0234 50.575 87.3407 50.6204V51.7378H87.2589C85.7418 51.7378 84.5063 52.828 84.5063 54.9175V57.6792H83.4706V50.7476Z" fill="white" stroke="white" stroke-width="0.5"/>
<path d="M88.2582 54.2452V54.218C88.2582 52.2557 89.7845 50.5932 91.8103 50.5932C93.1276 50.5932 93.9452 51.1474 94.5903 51.8287L93.9089 52.5555C93.3638 51.974 92.7461 51.5107 91.8013 51.5107C90.3931 51.5107 89.3211 52.7008 89.3211 54.1907V54.218C89.3211 55.7169 90.4204 56.9161 91.8649 56.9161C92.7461 56.9161 93.4365 56.471 93.9816 55.8805L94.6357 56.4982C93.9361 57.2795 93.1094 57.8427 91.8013 57.8427C89.7754 57.8427 88.2491 56.1893 88.2491 54.2452" fill="white"/>
<path d="M88.2582 54.2452V54.218C88.2582 52.2557 89.7845 50.5932 91.8103 50.5932C93.1276 50.5932 93.9452 51.1474 94.5903 51.8287L93.9089 52.5555C93.3638 51.974 92.7461 51.5107 91.8013 51.5107C90.3931 51.5107 89.3211 52.7008 89.3211 54.1907V54.218C89.3211 55.7169 90.4204 56.9161 91.8649 56.9161C92.7461 56.9161 93.4365 56.471 93.9816 55.8805L94.6357 56.4982C93.9361 57.2795 93.1094 57.8427 91.8013 57.8427C89.7754 57.8427 88.2491 56.1893 88.2491 54.2452" stroke="white" stroke-width="0.5"/>
<path d="M99.2869 56.9434C100.241 56.9434 100.913 56.5527 101.476 55.9622L102.121 56.5436C101.422 57.3249 100.577 57.8427 99.2688 57.8427C97.361 57.8427 95.8075 56.3801 95.8075 54.218C95.8075 52.2103 97.2156 50.5932 99.1325 50.5932C101.186 50.5932 102.367 52.2284 102.367 54.2725C102.367 54.3633 102.367 54.4723 102.358 54.6359H96.8613C97.0067 56.0985 98.0787 56.9434 99.3051 56.9434M101.331 53.8092C101.213 52.5464 100.486 51.4744 99.1143 51.4744C97.9242 51.4744 97.0067 52.4646 96.8613 53.8092H101.331Z" fill="white"/>
<path d="M99.2869 56.9434C100.241 56.9434 100.913 56.5527 101.476 55.9622L102.121 56.5436C101.422 57.3249 100.577 57.8427 99.2688 57.8427C97.361 57.8427 95.8075 56.3801 95.8075 54.218C95.8075 52.2103 97.2156 50.5932 99.1325 50.5932C101.186 50.5932 102.367 52.2284 102.367 54.2725C102.367 54.3633 102.367 54.4723 102.358 54.6359H96.8613C97.0067 56.0985 98.0787 56.9434 99.3051 56.9434M101.331 53.8092C101.213 52.5464 100.486 51.4744 99.1143 51.4744C97.9242 51.4744 97.0067 52.4646 96.8613 53.8092H101.331Z" stroke="white" stroke-width="0.5"/>
<path d="M109.553 48.2947H108.49V57.6792H109.553V48.2947Z" fill="white" stroke="white" stroke-width="0.5"/>
<path d="M112.205 50.7476H113.241V51.9559C113.695 51.2019 114.422 50.6023 115.612 50.6023C117.284 50.6023 118.265 51.7288 118.265 53.3822V57.6883H117.229V53.6365C117.229 52.3465 116.53 51.5471 115.312 51.5471C114.095 51.5471 113.232 52.4192 113.232 53.7183V57.6883H112.196V50.7567L112.205 50.7476Z" fill="white" stroke="white" stroke-width="0.5"/>
<path d="M120.681 50.7476H121.717V51.9559C122.171 51.2019 122.898 50.6023 124.088 50.6023C125.769 50.6023 126.741 51.7288 126.741 53.3822V57.6883H125.705V53.6365C125.705 52.3465 125.006 51.5471 123.788 51.5471C122.571 51.5471 121.708 52.4192 121.708 53.7183V57.6883H120.672V50.7567L120.681 50.7476Z" fill="white" stroke="white" stroke-width="0.5"/>
<path d="M128.603 54.2452V54.218C128.603 52.2557 130.129 50.5932 132.228 50.5932C134.327 50.5932 135.835 52.2284 135.835 54.1907V54.218C135.835 56.1712 134.29 57.8427 132.201 57.8427C130.111 57.8427 128.603 56.2075 128.603 54.2452ZM134.772 54.2452V54.218C134.772 52.7281 133.654 51.5107 132.192 51.5107C130.729 51.5107 129.657 52.7281 129.657 54.1907V54.218C129.657 55.7079 130.756 56.9161 132.219 56.9161C133.682 56.9161 134.772 55.7079 134.772 54.2452Z" fill="white" stroke="white" stroke-width="0.5"/>
<path d="M136.689 50.7476H137.824L140.159 56.4982L142.512 50.7476H143.62L140.604 57.7337H139.696L136.689 50.7476Z" fill="white" stroke="white" stroke-width="0.5"/>
<path d="M144.474 55.6716V55.6443C144.474 54.1544 145.682 53.3822 147.436 53.3822C148.317 53.3822 148.935 53.5003 149.552 53.682V53.464C149.552 52.2285 148.798 51.5835 147.499 51.5835C146.682 51.5835 146.037 51.7833 145.392 52.0831L145.083 51.2383C145.846 50.893 146.582 50.6478 147.608 50.6478C148.635 50.6478 149.353 50.9203 149.852 51.4109C150.334 51.8924 150.579 52.5646 150.579 53.4458V57.6884H149.562V56.6527C149.08 57.2705 148.29 57.8337 147.063 57.8337C145.764 57.8337 144.474 57.0979 144.474 55.6716ZM149.571 55.1356V54.4906C149.062 54.3452 148.39 54.1998 147.545 54.1998C146.255 54.1998 145.519 54.7631 145.519 55.5989V55.6261C145.519 56.4983 146.318 57.007 147.263 57.007C148.535 57.007 149.571 56.2439 149.571 55.1447" fill="white"/>
<path d="M144.474 55.6716V55.6443C144.474 54.1544 145.682 53.3822 147.436 53.3822C148.317 53.3822 148.935 53.5003 149.552 53.682V53.464C149.552 52.2285 148.798 51.5835 147.499 51.5835C146.682 51.5835 146.037 51.7833 145.392 52.0831L145.083 51.2383C145.846 50.893 146.582 50.6478 147.608 50.6478C148.635 50.6478 149.353 50.9203 149.852 51.4109C150.334 51.8924 150.579 52.5646 150.579 53.4458V57.6884H149.562V56.6527C149.08 57.2705 148.29 57.8337 147.063 57.8337C145.764 57.8337 144.474 57.0979 144.474 55.6716M149.571 55.1356V54.4906C149.062 54.3452 148.39 54.1998 147.545 54.1998C146.255 54.1998 145.519 54.7631 145.519 55.5989V55.6261C145.519 56.4983 146.318 57.007 147.263 57.007C148.535 57.007 149.571 56.2439 149.571 55.1447" stroke="white" stroke-width="0.5"/>
<path d="M153.141 55.8442V51.6561H152.178V50.7477H153.141V48.6582H154.177V50.7477H156.375V51.6561H154.177V55.7079C154.177 56.5528 154.649 56.8617 155.339 56.8617C155.685 56.8617 155.984 56.798 156.348 56.6164V57.4976C155.984 57.6883 155.594 57.7974 155.103 57.7974C153.986 57.7974 153.141 57.2432 153.141 55.8351" fill="white"/>
<path d="M153.141 55.8442V51.6561H152.178V50.7477H153.141V48.6582H154.177V50.7477H156.375V51.6561H154.177V55.7079C154.177 56.5528 154.649 56.8617 155.339 56.8617C155.685 56.8617 155.984 56.798 156.348 56.6164V57.4976C155.984 57.6883 155.594 57.7974 155.103 57.7974C153.986 57.7974 153.141 57.2432 153.141 55.8351" stroke="white" stroke-width="0.5"/>
<path d="M158.301 48.0949H159.482V49.2396H158.301V48.0949ZM158.365 50.7476H159.4V57.6792H158.365V50.7476Z" fill="white" stroke="white" stroke-width="0.5"/>
<path d="M161.453 54.2452V54.218C161.453 52.2557 162.98 50.5932 165.078 50.5932C167.177 50.5932 168.685 52.2284 168.685 54.1907V54.218C168.685 56.1712 167.14 57.8427 165.051 57.8427C162.961 57.8427 161.453 56.2075 161.453 54.2452ZM167.622 54.2452V54.218C167.622 52.7281 166.504 51.5107 165.042 51.5107C163.579 51.5107 162.507 52.7281 162.507 54.1907V54.218C162.507 55.7079 163.606 56.9161 165.069 56.9161C166.532 56.9161 167.622 55.7079 167.622 54.2452Z" fill="white" stroke="white" stroke-width="0.5"/>
<path d="M170.629 50.7476H171.664V51.9559C172.119 51.2019 172.845 50.6023 174.036 50.6023C175.707 50.6023 176.688 51.7288 176.688 53.3822V57.6883H175.653V53.6365C175.653 52.3465 174.953 51.5471 173.736 51.5471C172.518 51.5471 171.655 52.4192 171.655 53.7183V57.6883H170.62V50.7567L170.629 50.7476Z" fill="white" stroke="white" stroke-width="0.5"/>
<path d="M183.257 48.2947H184.247L190.161 55.8169V48.2947H191.197V57.6792H190.352L184.292 49.9845V57.6792H183.257V48.2947Z" fill="white" stroke="white" stroke-width="0.5"/>
<path d="M196.82 56.9434C197.774 56.9434 198.446 56.5527 199.009 55.9622L199.654 56.5436C198.955 57.3249 198.11 57.8427 196.802 57.8427C194.894 57.8427 193.34 56.3801 193.34 54.218C193.34 52.2103 194.749 50.5932 196.665 50.5932C198.719 50.5932 199.9 52.2284 199.9 54.2725C199.9 54.3633 199.9 54.4723 199.881 54.6359H194.385C194.531 56.0985 195.603 56.9434 196.829 56.9434M198.855 53.8092C198.737 52.5464 198.01 51.4744 196.638 51.4744C195.448 51.4744 194.531 52.4646 194.385 53.8092H198.855Z" fill="white"/>
<path d="M196.82 56.9434C197.774 56.9434 198.446 56.5527 199.009 55.9622L199.654 56.5436C198.955 57.3249 198.11 57.8427 196.802 57.8427C194.894 57.8427 193.34 56.3801 193.34 54.218C193.34 52.2103 194.749 50.5932 196.665 50.5932C198.719 50.5932 199.9 52.2284 199.9 54.2725C199.9 54.3633 199.9 54.4723 199.881 54.6359H194.385C194.531 56.0985 195.603 56.9434 196.829 56.9434M198.855 53.8092C198.737 52.5464 198.01 51.4744 196.638 51.4744C195.448 51.4744 194.531 52.4646 194.385 53.8092H198.855Z" stroke="white" stroke-width="0.5"/>
<path d="M202.144 55.8442V51.6561H201.181V50.7477H202.144V48.6582H203.179V50.7477H205.378V51.6561H203.179V55.7079C203.179 56.5528 203.652 56.8617 204.342 56.8617C204.687 56.8617 204.987 56.798 205.35 56.6164V57.4976C204.987 57.6883 204.596 57.7974 204.106 57.7974C202.988 57.7974 202.144 57.2432 202.144 55.8351" fill="white"/>
<path d="M202.144 55.8442V51.6561H201.181V50.7477H202.144V48.6582H203.179V50.7477H205.378V51.6561H203.179V55.7079C203.179 56.5528 203.652 56.8617 204.342 56.8617C204.687 56.8617 204.987 56.798 205.35 56.6164V57.4976C204.987 57.6883 204.596 57.7974 204.106 57.7974C202.988 57.7974 202.144 57.2432 202.144 55.8351" stroke="white" stroke-width="0.5"/>
<path d="M206.695 50.7476H207.794L209.62 56.3165L211.483 50.7203H212.346L214.217 56.3165L216.043 50.7476H217.115L214.671 57.7337H213.781L211.91 52.2647L210.038 57.7337H209.121L206.695 50.7476Z" fill="white" stroke="white" stroke-width="0.5"/>
<path d="M218.151 54.2452V54.218C218.151 52.2557 219.677 50.5932 221.776 50.5932C223.874 50.5932 225.382 52.2284 225.382 54.1907V54.218C225.382 56.1712 223.838 57.8427 221.748 57.8427C219.659 57.8427 218.151 56.2075 218.151 54.2452ZM224.319 54.2452V54.218C224.319 52.7281 223.202 51.5107 221.739 51.5107C220.277 51.5107 219.205 52.7281 219.205 54.1907V54.218C219.205 55.7079 220.304 56.9161 221.766 56.9161C223.229 56.9161 224.319 55.7079 224.319 54.2452Z" fill="white"/>
<path d="M218.151 54.2452V54.218C218.151 52.2557 219.677 50.5932 221.776 50.5932C223.874 50.5932 225.382 52.2284 225.382 54.1907V54.218C225.382 56.1712 223.838 57.8427 221.748 57.8427C219.659 57.8427 218.151 56.2075 218.151 54.2452M224.319 54.2452V54.218C224.319 52.7281 223.202 51.5107 221.739 51.5107C220.277 51.5107 219.205 52.7281 219.205 54.1907V54.218C219.205 55.7079 220.304 56.9161 221.766 56.9161C223.229 56.9161 224.319 55.7079 224.319 54.2452Z" stroke="white" stroke-width="0.5"/>
<path d="M227.326 50.7476H228.362V52.5554C228.871 51.4017 229.879 50.575 231.196 50.6204V51.7378H231.115C229.597 51.7378 228.362 52.828 228.362 54.9175V57.6792H227.326V50.7476Z" fill="white" stroke="white" stroke-width="0.5"/>
<path d="M232.841 47.886H233.876V54.6449L237.619 50.7476H238.909L235.993 53.7274L239 57.6792H237.764L235.284 54.4451L233.876 55.8714V57.6792H232.841V47.886Z" fill="white" stroke="white" stroke-width="0.5"/>
<path d="M1.46338 20.6138V20.5048C1.46338 9.89389 9.22168 1 19.9961 1C27.1094 1 30.825 3.64364 34.3226 6.97771L33.5141 7.78625C30.498 4.87915 26.6733 2.07198 19.9416 2.07198C9.9212 2.07198 2.64438 10.5843 2.64438 20.4412V20.5502C2.64438 30.5161 10.0211 38.9194 19.9416 38.9194C26.0828 38.9194 30.6615 36.0123 33.6776 32.7782L34.5406 33.5867C31.252 37.0389 26.5189 40.0005 19.8871 40.0005C9.27619 40.0005 1.46338 31.2701 1.46338 20.6047" fill="white"/>
<path d="M1.46338 20.6138V20.5048C1.46338 9.89389 9.22168 1 19.9961 1C27.1094 1 30.825 3.64364 34.3226 6.97771L33.5141 7.78625C30.498 4.87915 26.6733 2.07198 19.9416 2.07198C9.9212 2.07198 2.64438 10.5843 2.64438 20.4412V20.5502C2.64438 30.5161 10.0211 38.9194 19.9416 38.9194C26.0828 38.9194 30.6615 36.0123 33.6776 32.7782L34.5406 33.5867C31.252 37.0389 26.5189 40.0005 19.8871 40.0005C9.27619 40.0005 1.46338 31.2701 1.46338 20.6047" stroke="white" stroke-width="0.5"/>
<path d="M42.2353 1.65405H57.6429C62.5486 1.65405 66.1552 2.88956 68.4718 5.20614C70.1979 6.93223 71.1609 9.30333 71.1609 12.2104V12.3194C71.1609 18.6787 66.1007 22.4488 58.8239 22.8758L71.3789 39.3554H69.9253L57.4248 22.9212H43.4163V39.3554H42.2353V1.64496V1.65405ZM57.0524 21.8583C65.7827 21.8583 69.9798 17.7067 69.9798 12.374V12.2649C69.9798 6.28722 65.3467 2.73513 57.5339 2.73513H43.4163V21.8583H57.0433H57.0524Z" fill="white" stroke="white" stroke-width="0.5"/>
<path d="M94.3812 1.65411H95.4078L124.061 37.4204V1.65411H125.196V39.3645H124.17L95.5168 3.58914V39.3645H94.3812V1.65411Z" fill="white" stroke="white" stroke-width="0.5"/>
<path d="M82.7983 1.65411H81.6173V22.9304H82.7983V1.65411Z" fill="white" stroke="white" stroke-width="0.5"/>
<path d="M82.7983 26.0101H81.6173V39.3645H82.7983V26.0101Z" fill="#7AB2BB" stroke="#7AB2BB" stroke-width="0.5"/>
<path d="M1 53.0097V52.9824C1 50.3297 2.98045 48.1312 5.75128 48.1312C7.45919 48.1312 8.47668 48.7308 9.4124 49.6211L8.68563 50.4024C7.89526 49.6483 7.00496 49.1124 5.73311 49.1124C3.65272 49.1124 2.09924 50.8021 2.09924 52.9642V52.9915C2.09924 55.1627 3.67089 56.8706 5.73311 56.8706C7.02313 56.8706 7.86801 56.371 8.76739 55.517L9.46691 56.1984C8.48576 57.1886 7.41378 57.8518 5.71494 57.8518C3.00771 57.8518 1.00909 55.7169 1.00909 53.0187" fill="white"/>
<path d="M1 53.0097V52.9824C1 50.3297 2.98045 48.1312 5.75128 48.1312C7.45919 48.1312 8.47668 48.7308 9.4124 49.6211L8.68563 50.4024C7.89526 49.6483 7.00496 49.1124 5.73311 49.1124C3.65272 49.1124 2.09924 50.8021 2.09924 52.9642V52.9915C2.09924 55.1627 3.67089 56.8706 5.73311 56.8706C7.02313 56.8706 7.86801 56.371 8.76739 55.517L9.46691 56.1984C8.48576 57.1886 7.41378 57.8518 5.71494 57.8518C3.00771 57.8518 1.00909 55.7169 1.00909 53.0187" stroke="white" stroke-width="0.5"/>
<path d="M12.3467 47.886H11.3111V57.6792H12.3467V47.886Z" fill="white" stroke="white" stroke-width="0.5"/>
</svg>
