<svg width="1440" height="720" viewBox="0 0 1440 720" fill="none" xmlns="http://www.w3.org/2000/svg">
<g clip-path="url(#clip0_1120_14359)">
<g opacity="0.08">
<path d="M4.72086 336.73L7.83153 337.172L3.2702 335.435L2.55981 335.929L4.72086 336.73Z" fill="white"/>
<path d="M1.7224 335.577L2.41032 335.083L-99.6218 295.925C-99.6667 296.187 -99.719 296.419 -99.7714 296.629L1.7224 335.577Z" fill="white"/>
<path d="M71.5483 361.907C71.2941 362.004 70.9651 362.049 70.6809 362.049L71.6007 362.401L71.5483 361.907Z" fill="white"/>
<path d="M10.374 338.939L49.9455 354.141L50.9101 353.722L13.4771 339.291L10.374 338.939Z" fill="white"/>
<path d="M52.0093 354.755L51.8823 354.845L52.2111 354.942C52.1662 354.897 52.0616 354.8 52.0093 354.755Z" fill="white"/>
<path d="M86.212 367.231L73.1038 362.214L73.186 363.045L86.055 367.957L86.212 367.231Z" fill="white"/>
<path d="M95.2974 370.706L86.9299 367.553L86.8252 368.212L94.9907 371.387C95.0954 371.148 95.1478 370.938 95.2974 370.698V370.706Z" fill="white"/>
<path d="M-17.3307 51.8135L11.0843 -25.2586H10.2692L-18.7365 53.461L-17.3307 51.8135Z" fill="white"/>
<path d="M-20.1946 715.83L32.3282 727.25L32.3507 726.636L-19.7609 715.164L-20.1946 715.83Z" fill="white"/>
<path d="M176.624 679.092L177.334 679.376L189.014 642.825C188.783 642.825 188.528 642.727 188.252 642.727L176.624 679.092Z" fill="white"/>
<path d="M177.11 680.125L176.422 679.848L155.634 744.886C155.889 744.886 156.12 745.081 156.375 745.081L177.11 680.133V680.125Z" fill="white"/>
<path d="M107.202 651.556L39.6114 666.032L39.5367 666.743L108.346 651.976L107.202 651.556Z" fill="white"/>
<path d="M-94.4474 695.507L8.93819 673.318L9.52146 672.419L-94.5969 694.795C-94.5521 694.982 -94.4997 695.222 -94.4474 695.507Z" fill="white"/>
<path d="M108.727 651.324V651.227H108.495L108.727 651.324Z" fill="white"/>
<path d="M10.0525 673.078L38.6993 666.93L38.7965 666.129L10.6657 672.232L10.0525 673.078Z" fill="white"/>
<path d="M181.806 635.471L110.17 650.845L110.223 651.556L181.911 636.272C181.858 635.995 181.806 635.755 181.806 635.471Z" fill="white"/>
<path d="M74.8011 387.3L-83.5524 460.501L-86.4537 462.673L74.9059 388.027L74.8011 387.3Z" fill="white"/>
<path d="M84.3651 382.86L84.2379 383.758L95.3571 378.606C95.3048 378.367 95.1553 378.157 95.0506 377.925L84.3651 382.86Z" fill="white"/>
<path d="M83.4528 383.309L76.2518 386.634L76.3565 387.398L83.3257 384.163L83.4528 383.309Z" fill="white"/>
<path d="M75.9601 583.583L101.436 594.643L101.362 593.887L76.3939 582.969L75.9601 583.583Z" fill="white"/>
<path d="M114.418 599.586L102.932 594.598L103.037 595.4L113.393 599.968L114.418 599.586Z" fill="white"/>
<path d="M115.405 600.013L114.418 600.387L182.494 630.281C182.621 629.997 182.726 629.854 182.83 629.577L115.412 600.013H115.405Z" fill="white"/>
<path d="M51.9869 572.238L-45.798 529.388L-44.6015 530.616L51.8897 572.941L51.9869 572.238Z" fill="white"/>
<path d="M75.7283 582.587L52.6972 572.612L52.5925 573.271L75.2498 583.253L75.7283 582.587Z" fill="white"/>
<path d="M106.267 383.219L143.775 493.937L144.328 493.136L107.03 382.98C106.798 383.024 106.544 383.167 106.267 383.219Z" fill="white"/>
<path d="M188.289 625.519C188.573 625.421 188.775 625.421 189.052 625.331L173.551 579.501L172.788 579.786L188.289 625.519Z" fill="white"/>
<path d="M144.059 494.836L172.586 579.037L173.274 578.745L144.642 494.027L144.059 494.836Z" fill="white"/>
<path d="M103.739 365.659C101.22 365.659 99.208 366.415 97.7125 367.568L111.868 379.085C114.814 373.829 112.107 365.644 103.739 365.651V365.659Z" fill="white"/>
<path d="M94.9907 371.395C94.2803 373.499 94.2878 375.873 95.0505 377.925C95.1552 378.157 95.3047 378.367 95.3571 378.606C96.7105 381.384 99.5072 383.489 103.754 383.481C104.674 383.481 105.512 383.339 106.267 383.219C106.551 383.174 106.805 383.032 107.03 382.98C108.735 382.44 110.028 381.497 111.045 380.291L96.6432 368.557C96.1049 369.193 95.6263 369.949 95.2973 370.698C95.1477 370.938 95.0954 371.148 94.9907 371.387V371.395Z" fill="white"/>
<path d="M182.83 629.577C182.726 629.854 182.628 629.997 182.494 630.281C181.761 631.884 181.582 633.771 181.813 635.471C181.813 635.755 181.866 635.995 181.918 636.272C182.636 639.238 184.722 641.836 188.259 642.727C188.536 642.727 188.79 642.825 189.022 642.825C189.657 642.914 190.293 643.057 190.959 643.057C203.431 643.049 203.416 625.137 190.944 625.144C190.33 625.144 189.702 625.234 189.059 625.331C188.775 625.421 188.573 625.421 188.296 625.519C185.732 626.178 183.944 627.78 182.83 629.577Z" fill="white"/>
<path d="M27.6547 778.51L33.091 727.483L33.1358 726.726L39.5367 666.743L39.6114 666.039L42.924 634.58H42.109L38.7964 666.129L38.6992 666.93L32.3507 726.636L32.3282 727.25L26.8471 778.697L26.7425 779.356L23.1008 813.781L23.8636 814.155L27.6024 779.206L27.6547 778.502V778.51Z" fill="white"/>
<path d="M10.0524 673.078L10.6581 672.225L38.1832 633.449C37.8991 633.262 37.6972 633.075 37.5177 632.977L9.50654 672.419L8.9233 673.318L-20.6357 714.879L-21.0694 715.636L-59.6016 770.033C-59.4222 770.13 -59.1679 770.22 -58.9885 770.362L-20.202 715.823L-19.7683 715.164L10.0449 673.078H10.0524Z" fill="white"/>
<path d="M144.964 19.111L91.5361 -21.0276L90.4668 -20.8179L144.485 19.7475C144.642 19.5079 144.792 19.2982 144.971 19.111H144.964Z" fill="white"/>
<path d="M147.962 10.1996L136.432 -25.3485H135.572L147.678 11.7348L147.962 10.1996Z" fill="white"/>
<path d="M149.233 16.4675C149.465 16.3702 149.719 16.3253 149.996 16.3028L148.874 12.933L148.545 14.4606L149.226 16.4675H149.233Z" fill="white"/>
<path d="M-143.635 683.001L-131.783 679.406L-130.863 679.032L-108.528 672.225L-107.817 672.037L34.093 628.409C34.0406 628.17 33.9883 627.982 33.8911 627.698L-107.892 671.371L-108.632 671.513L-131.678 678.553L-132.591 678.889L-144.832 682.574L-146.05 683.001L-225.44 707.436L-224.371 707.863L-144.779 683.375L-143.635 683.001Z" fill="white"/>
<path d="M-46.3812 529.912L36.6204 618.27C36.8223 618.18 37.0765 617.993 37.256 617.843L-44.6015 530.616L-45.798 529.388L-99.4424 472.25L-100.078 472.7L-47.6225 528.542L-46.3737 529.912H-46.3812Z" fill="white"/>
<path d="M102.805 267.364L91.9324 332.679L92.8521 332.162L103.62 267.461C103.343 267.416 103.059 267.416 102.805 267.364Z" fill="white"/>
<path d="M88.1636 359.847L92.5456 333.982L91.6333 334.521L87.5056 359.256L88.1636 359.847Z" fill="white"/>
<path d="M84.365 382.86L86.8251 368.22L86.9298 367.553L87.9393 361.495L87.2513 360.858L86.2119 367.231L86.0549 367.957L83.4527 383.309L83.3256 384.163L79.1232 409.294L79.5045 412.028L84.2378 383.758L84.365 382.86Z" fill="white"/>
<path d="M51.8897 572.941L44.6663 616.143C44.9505 616.143 45.2047 616.143 45.4814 616.188L52.6001 573.271L52.7048 572.612L78.6446 417.097L78.3081 414.364L51.9869 572.23L51.8897 572.934V572.941Z" fill="white"/>
<path d="M-0.745285 337.464L-117.718 425.799L-114.764 424.548L0.376358 337.606L-0.745285 337.464Z" fill="white"/>
<path d="M87.0644 271.146L65.8728 287.149L65.9775 288.002L86.7578 272.351L87.0644 271.146Z" fill="white"/>
<path d="M96.5684 263.972L88.9413 269.753L88.6347 270.913L97.0545 264.541C96.8451 264.428 96.718 264.189 96.5684 263.979V263.972Z" fill="white"/>
<path d="M47.4929 301.991L64.5792 289.133L64.482 288.189L47.1414 301.287L47.4929 301.991Z" fill="white"/>
<path d="M1.72235 335.577L0.854919 336.258L1.97656 336.378L2.55984 335.929L3.27022 335.435L46.3189 302.889L45.9375 302.178L2.41028 335.083L1.72235 335.577Z" fill="white"/>
<path d="M142.758 26.7269L44.8458 45.8451L44.8981 46.5565L142.96 27.5057C142.915 27.2286 142.862 27.0114 142.758 26.7269Z" fill="white"/>
<path d="M-20.0749 59.1897L43.4475 46.8636L43.3428 46.0623L-19.7459 58.3884L-20.6657 58.5532L-21.3237 58.703L-22.1088 59.5941L-20.89 59.3769L-20.0749 59.1897Z" fill="white"/>
<path d="M92.0072 249.99L60.9825 231.067L61.1022 232.055L91.7754 250.799L92.0072 249.99Z" fill="white"/>
<path d="M-14.6162 185.776L59.5244 231.067L59.4271 230.116L-15.3042 184.436L-14.6162 185.776Z" fill="white"/>
<path d="M96.3068 252.679L93.3307 250.844L93.1736 251.645L95.8731 253.315C96.0226 253.076 96.1273 252.866 96.3068 252.679Z" fill="white"/>
<path d="M52.5852 628.394C52.5104 628.581 52.4057 628.821 52.301 629.098L107.194 651.556L108.338 651.976L108.824 652.163L108.72 651.317L108.488 651.219L52.5777 628.394H52.5852Z" fill="white"/>
<path d="M451.082 792.071C451.18 791.884 451.382 791.6 451.486 791.457L261.398 713.741L260.859 714.355L451.075 792.071H451.082Z" fill="white"/>
<path d="M177.11 680.125L259.469 713.741L259.947 713.172L177.342 679.376L176.624 679.092L110.335 651.976L110.432 652.829L176.422 679.848L177.11 680.125Z" fill="white"/>
<path d="M480.873 479.275L464.43 720.196L465.193 721.185L481.666 479.275H480.873Z" fill="white"/>
<path d="M185.791 439.189L186.352 439.683L310.189 278.372C309.987 278.252 309.755 278.11 309.554 277.923L185.784 439.189H185.791Z" fill="white"/>
<path d="M75.2498 583.253L48.9136 617.506C49.1678 617.648 49.3473 617.745 49.5492 617.978L75.9601 583.575L76.3938 582.969L96.5759 556.684L96.4413 555.598L75.7283 582.587L75.2423 583.246L75.2498 583.253Z" fill="white"/>
<path d="M144.642 494.027L185.492 440.858L184.879 440.364L144.335 493.136L143.775 493.937L97.7424 553.906L97.8471 554.991L144.059 494.836L144.642 494.027Z" fill="white"/>
<path d="M52.5851 622.313L102.723 604.543L102.618 603.787L52.3608 621.557C52.458 621.834 52.5103 622.029 52.5926 622.313H52.5851Z" fill="white"/>
<path d="M472.371 472.842L403.263 497.24L402.882 498.236L472.551 473.546C472.521 473.284 472.424 473.029 472.371 472.842Z" fill="white"/>
<path d="M302.054 533.859L400.952 498.895L401.334 497.951L301.448 533.342L302.054 533.859Z" fill="white"/>
<path d="M115.405 600.013L172.795 579.786L173.551 579.501L300.506 534.428L299.84 533.866L173.274 578.745L172.586 579.037L114.418 599.586L113.393 599.968L104.061 603.278L104.166 603.982L114.418 600.387L115.405 600.013Z" fill="white"/>
<path d="M476.035 462.178L436.942 415.315L436.666 416.161L475.37 462.628C475.602 462.44 475.804 462.276 476.028 462.178H476.035Z" fill="white"/>
<path d="M321.465 278.192L435.596 414.866L435.873 414.064L322.049 277.706C321.899 277.87 321.697 278.057 321.465 278.2V278.192Z" fill="white"/>
<path d="M487.102 462.074C487.349 462.163 487.536 462.336 487.783 462.523L602.138 307.18C601.861 307.068 601.652 306.971 601.472 306.784L487.095 462.081L487.102 462.074Z" fill="white"/>
<path d="M597.831 297.475L489.794 287.081L489.488 287.785L597.726 298.224C597.778 297.962 597.778 297.752 597.831 297.468V297.475Z" fill="white"/>
<path d="M325.271 271.924L487.94 287.605L488.246 286.946L325.324 271.198C325.324 271.438 325.271 271.692 325.271 271.932V271.924Z" fill="white"/>
<path d="M422.832 140.41L515.756 220.223L516.033 219.445L423.498 140.006L422.832 140.41Z" fill="white"/>
<path d="M600.141 292.78C600.343 292.54 600.53 292.406 600.68 292.241L517.2 220.486L516.901 221.242L600.141 292.787V292.78Z" fill="white"/>
<path d="M422.398 139.018L337.266 65.9219C337.116 66.1541 336.966 66.3413 336.787 66.5135L421.666 139.422L422.406 139.018H422.398Z" fill="white"/>
<path d="M114.021 259.149L207.963 264.69L209.107 264.001L114.074 258.393C114.021 258.67 114.021 258.932 114.021 259.149Z" fill="white"/>
<path d="M305.987 269.7L211.672 264.159L210.445 264.885L305.934 270.449C305.934 270.209 305.934 269.955 305.987 269.693V269.7Z" fill="white"/>
<path d="M320.822 198.529L329.28 69.6063H328.517L319.962 199.031L320.83 198.537L320.822 198.529Z" fill="white"/>
<path d="M316.672 261.223L320.725 200.251L319.858 200.746L315.88 261.178C316.126 261.178 316.411 261.178 316.665 261.223H316.672Z" fill="white"/>
<path d="M107.037 249.137L150.976 34.5749C150.699 34.5749 150.445 34.5299 150.161 34.4775L106.222 248.949C106.506 248.994 106.76 249.039 107.037 249.137Z" fill="white"/>
<path d="M112.077 252.319L322.183 66.8206C321.981 66.6558 321.847 66.4237 321.697 66.2589L111.651 251.728C111.778 251.915 111.935 252.125 112.085 252.319H112.077Z" fill="white"/>
<path d="M158.603 17.9952L192.305 -25.3859H191.31L157.99 17.5534C158.169 17.6657 158.423 17.808 158.603 17.9952Z" fill="white"/>
<path d="M319.805 58.2911C319.858 58.014 319.955 57.7968 320.037 57.5647L162.043 26.7194C161.998 27.0039 161.998 27.2136 161.893 27.4982L319.813 58.2911H319.805Z" fill="white"/>
<path d="M329.317 50.9748L325.563 -3.53435L324.748 -3.67664L328.554 51.0272C328.779 51.0272 329.085 50.9823 329.317 50.9748Z" fill="white"/>
<path d="M321.697 66.2589C321.847 66.4236 321.981 66.6558 322.183 66.8205C323.686 68.3482 325.795 69.3891 328.524 69.5988H329.339C332.719 69.5988 335.187 68.3407 336.795 66.506C336.974 66.3338 337.124 66.1466 337.273 65.9144C341.266 60.4628 338.612 50.9673 329.324 50.9673C329.093 50.9673 328.786 51.0122 328.562 51.0197C323.851 51.2818 321.002 54.1574 320.045 57.5572C319.97 57.7968 319.865 58.0065 319.813 58.2836C319.275 60.9945 319.873 64.0123 321.697 66.2514V66.2589Z" fill="white"/>
<path d="M147.962 16.9169L144.642 31.1601C145.861 32.8375 147.745 34.0357 150.161 34.4775C150.445 34.5224 150.699 34.5749 150.976 34.5749C151.462 34.6198 151.948 34.6647 152.426 34.6647C157.892 34.6647 161.07 31.3398 161.886 27.4907C161.99 27.2136 161.99 26.9965 162.035 26.7119C162.521 23.5293 161.37 20.0845 158.595 17.9877C158.416 17.8005 158.162 17.6582 157.982 17.5459C156.532 16.6023 154.67 16.0632 152.411 16.0632C151.544 16.0632 150.729 16.1156 149.996 16.3028C149.712 16.3253 149.458 16.3702 149.233 16.4676C148.8 16.6098 148.344 16.7521 147.962 16.9169Z" fill="white"/>
<path d="M142.758 26.7269C142.862 27.0114 142.915 27.2211 142.96 27.5057C143.087 28.1197 143.244 28.7113 143.52 29.3179L146.182 17.9952C145.749 18.3547 145.315 18.7066 144.964 19.1035C144.784 19.2907 144.635 19.5079 144.478 19.74C143.004 21.747 142.474 24.3155 142.75 26.7194L142.758 26.7269Z" fill="white"/>
<path d="M104.36 267.461C110.335 267.461 113.543 263.47 114.021 259.156C114.021 258.947 114.021 258.685 114.074 258.4C114.126 256.251 113.49 254.057 112.085 252.319C111.935 252.132 111.785 251.922 111.651 251.728C110.432 250.477 108.981 249.631 107.045 249.137C106.768 249.039 106.514 248.994 106.23 248.95C105.646 248.852 105.011 248.83 104.345 248.83C100.576 248.83 97.9145 250.387 96.3068 252.679C96.1273 252.866 96.0226 253.083 95.8731 253.315C93.9438 256.573 94.1981 260.954 96.5685 263.972C96.718 264.181 96.8452 264.421 97.0545 264.533C98.4005 266.016 100.337 267.057 102.805 267.356C103.059 267.401 103.343 267.401 103.62 267.454H104.36V267.461Z" fill="white"/>
<path d="M315.655 261.178C309.546 261.178 306.323 265.334 305.994 269.7C305.942 269.955 305.942 270.217 305.942 270.457C305.942 273.332 307.093 276.14 309.561 277.93C309.763 278.117 309.995 278.26 310.197 278.379C311.647 279.271 313.479 279.817 315.67 279.817C318.033 279.817 319.918 279.173 321.465 278.207C321.697 278.065 321.899 277.878 322.049 277.713C323.881 276.275 324.972 274.178 325.272 271.939C325.272 271.7 325.324 271.445 325.324 271.205C325.698 266.563 322.804 261.71 316.665 261.238C316.411 261.193 316.126 261.193 315.88 261.193H315.648L315.655 261.178Z" fill="white"/>
<path d="M52.3085 629.098C52.4057 628.821 52.5104 628.581 52.5926 628.394C53.2282 626.455 53.2282 624.29 52.5926 622.313C52.5178 622.029 52.4655 621.842 52.3608 621.557C51.7252 620.142 50.8503 618.914 49.5567 617.978C49.3548 617.738 49.1754 617.648 48.9211 617.506C47.9042 616.847 46.7825 616.375 45.4889 616.188C45.2122 616.143 44.958 616.143 44.6739 616.143C44.2401 616.046 43.8588 616.046 43.3728 616.046C40.8528 616.046 38.8188 616.66 37.2635 617.843C37.084 617.985 36.8298 618.18 36.6279 618.27C33.9808 620.636 33.0686 624.403 33.8911 627.705C33.9883 627.99 34.0407 628.177 34.093 628.417C34.7062 630.206 35.8802 631.861 37.5327 632.985C37.7122 633.082 37.9141 633.269 38.1982 633.456C39.3198 634.07 40.6659 634.4 42.1165 634.587H42.9316C43.0811 634.587 43.1858 634.587 43.3877 634.587C48.0163 634.587 51.0223 632.176 52.316 629.113L52.3085 629.098Z" fill="white"/>
<path d="M481.651 460.643C479.355 460.643 477.478 461.19 476.028 462.178C475.796 462.276 475.594 462.44 475.37 462.628C472.319 465.032 471.302 469.165 472.371 472.842C472.424 473.029 472.528 473.284 472.551 473.546C473.769 476.511 476.476 478.945 480.873 479.275H481.666C492.097 479.267 494.124 467.196 487.783 462.53C487.536 462.343 487.349 462.171 487.102 462.081C485.696 461.182 483.819 460.643 481.658 460.643H481.651Z" fill="white"/>
<path d="M597.831 297.475C597.778 297.752 597.778 297.97 597.726 298.232C597.397 301.414 598.601 304.784 601.472 306.784C601.652 306.971 601.861 307.068 602.138 307.18C603.544 308.057 605.293 308.528 607.41 308.521C620.361 308.513 620.346 289.882 607.395 289.889C604.493 289.889 602.28 290.788 600.68 292.233C600.53 292.398 600.343 292.54 600.141 292.772C598.9 294.113 598.115 295.723 597.831 297.468V297.475Z" fill="white"/>
<path d="M376.8 600.582C376.419 600.769 375.962 601.053 375.476 601.196L464.281 722.465L465.043 723.409L816.693 1203.48C817.127 1203.24 817.561 1203.05 818.039 1202.91L465.193 721.185L464.43 720.196L376.8 600.582Z" fill="white"/>
<path d="M43.4475 46.8636L59.4271 230.116L59.5243 231.059L64.482 288.182L64.5792 289.126L67.8918 327.602C68.4302 327.602 68.9088 327.647 69.4472 327.692L65.985 287.995L65.8803 287.149L61.1096 232.055L60.9825 231.067L44.8981 46.564L44.8458 45.8526L41.3836 5.93866C41.0845 5.93866 40.8527 5.98359 40.5985 5.98359C40.3667 5.98359 40.0601 5.93866 39.8806 5.93866L43.3428 46.0623L43.4475 46.8636Z" fill="white"/>
<path d="M47.1414 301.287L-14.6163 185.776L-15.3042 184.436L-45.4465 128.062L-45.925 127.163L-50.4415 118.709C-50.9201 118.896 -51.3538 119.061 -51.8398 119.248L-46.6205 129.005L-46.1344 129.852L-17.8316 182.93L-17.0913 184.278L45.9375 302.186L46.3189 302.897L60.1525 328.77C60.6311 328.628 61.0648 328.463 61.5508 328.321L47.4929 301.998L47.1414 301.294V301.287Z" fill="white"/>
<path d="M143.52 29.3179L92.0071 249.99L91.7753 250.792L87.0569 271.146L86.7504 272.351L73.6421 328.545C74.1207 328.665 74.6067 328.807 75.0927 329.039L88.6347 270.913L88.9413 269.753L93.1736 251.645L93.3307 250.844L144.642 31.1601L147.962 16.9169L148.553 14.4606L148.882 12.9329L155.402 -14.8496C154.864 -14.8945 154.385 -14.9918 153.899 -15.1117L147.962 10.1921L147.686 11.7273L146.19 17.9952L143.528 29.3179H143.52Z" fill="white"/>
<path d="M-253.87 696.802L-253.152 697.042L-227.527 708.057L-226.457 708.529L-149.034 741.621L-148.324 741.95L-73.4278 773.964L-55.5862 781.685L-33.9534 790.911L-32.8617 791.382L22.9513 815.301L23.6841 815.585L75.2198 837.617L76.6181 838.321L119.278 856.54C119.428 856.113 119.614 855.687 119.816 855.215L79.4746 837.939L78.0763 837.325L23.8636 814.17L23.1008 813.796L-30.3941 790.911L-31.5381 790.349L-55.1375 780.367L-72.7473 772.833L-147.217 740.917L-147.95 740.543L-224.378 707.87L-225.448 707.443L-252.577 695.814L-253.265 695.439L-330.733 662.392C-330.86 662.819 -331.017 663.246 -331.219 663.718L-330.86 663.807L-253.878 696.809L-253.87 696.802Z" fill="white"/>
<path d="M259.468 713.741L174.695 816.125L174.104 816.784L165.235 827.634L164.503 828.488L147.955 848.587C148.336 848.827 148.673 849.059 149.046 849.336L166.589 828.196L167.277 827.395L174.702 818.431L175.233 817.72L260.874 714.348L261.413 713.734L355.444 600.028C355.055 599.788 354.681 599.413 354.27 599.181L259.962 713.18L259.476 713.741H259.468Z" fill="white"/>
<path d="M74.8011 387.3L74.9058 388.027L78.3081 414.364L78.6446 417.097L96.4488 555.598L96.5834 556.684L101.369 593.887L101.444 594.643L102.625 603.794L102.73 604.551L108.742 651.227V651.324L108.847 652.17L120.893 746.002L120.998 746.803L122.658 759.249L122.71 760.05L131.893 831.341L131.99 832.098L133.628 845.158C134.114 845.158 134.645 845.068 135.131 845.015L133.441 831.91L133.388 831.154L124.153 759.676L124.056 759.017L122.546 747.133L122.441 746.376L110.439 652.829L110.342 651.983L110.238 651.564L110.185 650.852L104.173 603.982L104.069 603.278L103.044 595.4L102.939 594.598L97.8546 554.991L97.7499 553.906L79.512 412.028L79.1307 409.294L76.364 387.39L76.2667 386.634L73.1934 363.038L73.1112 362.214L73.0588 361.6C72.5802 361.69 72.0942 361.809 71.5558 361.907L71.6082 362.401L74.8011 387.293V387.3Z" fill="white"/>
<path d="M-308.898 626.627L-264.556 593.962L-263.92 593.393L-175.243 528.115L-173.897 527.127L-139.44 501.643L-138.782 501.216L-128.74 493.803L-127.999 493.233L-100.078 472.7L-99.4424 472.25L-86.4463 462.673L-83.545 460.501L55.12 358.245C54.7387 357.938 54.4321 357.631 54.0507 357.271L-90.0281 463.474L-92.877 465.623L-100.452 471.195L-101.087 471.636L-129.54 492.619L-130.228 493.144L-139.051 499.614L-139.792 500.13L-172.641 524.393L-173.987 525.337L-265.199 592.644L-265.834 593.116L-310.513 626.065L-311.253 626.634L-335.025 644.098C-334.621 644.472 -334.337 644.809 -334.008 645.139L-309.593 627.151L-308.883 626.634L-308.898 626.627Z" fill="white"/>
<path d="M516.033 219.445L515.749 220.223L488.246 286.939L487.94 287.598L435.873 414.057L435.596 414.858L401.334 497.944L400.952 498.887L372.044 569.22C372.53 569.31 373.009 569.459 373.397 569.647L402.889 498.236L403.271 497.24L436.673 416.154L436.95 415.308L489.502 287.785L489.809 287.081L516.908 221.234L517.207 220.478L583.982 58.2611C583.496 58.1638 583.018 58.0964 582.532 57.9017L516.041 219.437L516.033 219.445Z" fill="white"/>
<path d="M421.658 139.422L320.822 198.529L319.955 199.023L209.092 264.009L207.948 264.698L92.8446 332.162L91.9249 332.679L83.7892 337.449C84.0435 337.898 84.1931 338.34 84.3202 338.745L91.6258 334.521L92.5381 333.982L210.438 264.885L211.664 264.159L319.85 200.746L320.718 200.251L422.832 140.411L423.49 140.006L573.686 51.9558C573.386 51.5589 573.155 51.1994 572.848 50.8026L422.398 139.018L421.658 139.422Z" fill="white"/>
<path d="M87.9393 361.495L96.6433 368.564L111.045 380.299L184.872 440.364L185.485 440.858L299.833 533.866L300.498 534.428L351.391 575.892C351.697 575.518 351.929 575.038 352.251 574.716L302.046 533.866L301.433 533.342L186.345 439.683L185.784 439.189L111.86 379.093L97.7051 367.576L88.1561 359.847L87.4907 359.256L82.3236 355.085C82.0694 355.459 81.7329 355.863 81.4786 356.223L87.2364 360.858L87.9243 361.495H87.9393Z" fill="white"/>
<path d="M4.72087 336.73L1.97655 336.378L0.854904 336.266L-111.511 321.281L-112.274 321.139L-146.17 316.661L-146.985 316.564L-154.44 315.538L-155.734 315.395L-232.32 305.196C-232.372 305.645 -232.499 306.095 -232.552 306.544L-158.149 316.489L-156.803 316.676L-146.828 318.009L-145.961 318.084L-112.476 322.539L-111.743 322.629L-0.752747 337.479L0.368896 337.621L10.3665 338.962L13.4697 339.314L49.1902 344.121C49.1902 343.627 49.2426 343.178 49.295 342.684L7.81657 337.195L4.71338 336.753L4.72087 336.73Z" fill="white"/>
<path d="M-368.607 534.623L-336.58 520.926L-335.847 520.552L-212.437 467.765L-211.367 467.413L-143.179 438.222L-126.653 431.183L-122.459 429.341L-119.46 428.038L51.8673 354.845L51.9944 354.755C51.7626 354.358 51.5158 353.954 51.284 353.505L50.8952 353.714L49.9306 354.141L-114.786 424.541L-117.74 425.792L-127.97 430.187L-143.104 436.657L-213.558 466.791L-214.583 467.241L-336.461 519.271L-337.171 519.548L-368.839 533.102L-369.549 533.477L-397.044 545.204V546.709L-369.34 534.9L-368.607 534.615V534.623Z" fill="white"/>
<path d="M-48.7291 88.425C-48.2954 88.6871 -47.8841 88.9642 -47.5551 89.2712L-22.1088 59.5941L-21.3237 58.703L-20.2319 57.355L-18.7887 55.7075L27.7894 1.37065C27.4529 1.01869 27.1014 0.666725 26.7649 0.292297L-17.3381 51.8135L-18.7364 53.4685L-23.6642 59.1523L-24.4269 60.0509L-48.7291 88.4325V88.425Z" fill="white"/>
<path d="M325.563 -3.53435L570.425 38.8733C570.478 38.4015 570.582 37.9522 570.68 37.5029L325.466 -4.97215L324.599 -5.11444L207.215 -25.4009H199.049L324.748 -3.67663L325.563 -3.53435Z" fill="white"/>
<path d="M571.973 33.5415L424.694 -25.5582H420.933L571.442 34.8145C571.592 34.3652 571.794 33.9458 571.973 33.5415Z" fill="white"/>
<path d="M582.322 24.8098L556.308 -25.648H554.685L580.871 25.304C581.358 25.1168 581.791 24.9521 582.322 24.8098Z" fill="white"/>
<path d="M576.953 27.4083L523.795 -25.6256H521.708L575.832 28.3519C576.22 28.0448 576.572 27.7153 576.953 27.4083Z" fill="white"/>
<path d="M576.953 27.4083C576.572 27.7154 576.221 28.0449 575.832 28.3519C574.209 29.8421 572.886 31.5869 571.966 33.5489C571.786 33.9533 571.584 34.3727 571.435 34.822C571.098 35.6757 570.829 36.5668 570.672 37.5104C570.575 37.9597 570.47 38.4015 570.418 38.8808C569.887 42.962 570.68 47.2754 572.841 50.81C573.147 51.2069 573.379 51.5664 573.678 51.9633C575.742 54.6966 578.651 56.8383 582.517 57.9167C583.003 58.1039 583.481 58.1788 583.967 58.2761C585.366 58.5757 586.794 58.7179 588.372 58.7179C612.592 58.703 612.569 23.9486 588.349 23.9636C586.136 23.9636 584.095 24.2781 582.322 24.8173C581.784 24.9596 581.35 25.1243 580.872 25.3115C579.473 25.8582 578.097 26.6145 576.953 27.4158V27.4083Z" fill="white"/>
<path d="M54.0433 357.271C54.4246 357.631 54.7312 357.93 55.1126 358.245C58.1186 360.761 62.1116 362.319 67.3011 362.311C68.4975 362.311 69.6117 362.221 70.681 362.057C70.9651 362.057 71.2942 362.004 71.5484 361.914C72.0868 361.824 72.5728 361.705 73.0514 361.607C76.6182 360.611 79.4373 358.679 81.4936 356.23C81.7479 355.871 82.0844 355.474 82.3386 355.092C85.5689 350.352 86.2718 344.129 84.3351 338.752C84.208 338.348 84.0585 337.906 83.8042 337.457C82.1741 333.78 79.2728 330.739 75.1003 329.047C74.6142 328.807 74.1282 328.673 73.6496 328.553C72.356 328.103 70.9502 327.826 69.4472 327.707C68.9088 327.662 68.4302 327.617 67.8918 327.617H67.2787C65.1924 327.617 63.3081 327.834 61.5508 328.328C61.0648 328.47 60.6311 328.635 60.1525 328.777C53.6395 331.166 50.0577 336.708 49.295 342.669C49.2427 343.163 49.1903 343.612 49.1903 344.106C49.0407 347.386 49.7287 350.681 51.284 353.512C51.5158 353.961 51.7626 354.358 51.9944 354.763C52.0467 354.808 52.1514 354.905 52.1963 354.95C52.7347 355.796 53.3404 356.507 54.0358 357.279L54.0433 357.271Z" fill="white"/>
<path d="M26.7724 0.284794C27.1089 0.659222 27.4603 1.01119 27.7968 1.36315C30.6981 3.99911 34.6687 5.78888 39.8806 5.93116C40.0601 5.93116 40.3667 5.97609 40.5985 5.97609C40.8527 5.97609 41.0845 5.93116 41.3836 5.93116C54.7162 5.47436 60.4067 -5.78093 58.2905 -15.3738C58.1933 -15.8231 58.0363 -16.3173 57.9391 -16.7666C56.9446 -20.0616 54.9555 -23.1019 52.0019 -25.2961L29.1801 -25.2811C21.1193 -19.2903 20.2893 -6.95663 26.7799 0.277308L26.7724 0.284794Z" fill="white"/>
<path d="M352.258 574.709C351.929 575.038 351.705 575.51 351.398 575.884C346.568 582.961 347.547 593.43 354.262 599.174C354.666 599.413 355.047 599.788 355.436 600.02C358.285 602.087 361.949 603.27 366.503 603.27C370.033 603.27 373.039 602.559 375.476 601.188C375.962 601.046 376.418 600.761 376.8 600.574C388.196 593.4 387.059 574.492 373.397 569.646C373.009 569.459 372.53 569.317 372.044 569.22C370.339 568.793 368.455 568.516 366.473 568.516C359.96 568.516 355.197 571.024 352.251 574.709H352.258Z" fill="white"/>
</g>
</g>
<g opacity="0.95" clip-path="url(#clip1_1120_14359)">
<g opacity="0.29">
<path d="M1340.89 431.059L1242.16 576.014C1242.31 576.111 1242.46 576.111 1242.64 576.155L1341.36 431.244C1341.24 431.148 1340.98 431.148 1340.89 431.059Z" fill="white"/>
<path d="M1439.05 111.04H1438.95L1438.9 111.018V116.687H1439.21V111.129C1439.15 111.129 1439.05 111.084 1439.05 111.04Z" fill="white"/>
<path d="M1316.67 118.154L1412.53 91.5356C1412.53 91.3948 1412.53 91.2096 1412.48 91.091L1316.55 117.761C1316.65 117.872 1316.65 118.013 1316.67 118.161V118.154Z" fill="white"/>
<path d="M1438.9 110.343L1439.2 110.595L1439.14 27.7467L1438.84 28.5174L1438.9 110.343Z" fill="white"/>
<path d="M1439.2 111.137C1439.15 111.137 1439.05 111.092 1439.05 111.047C1439.05 111.092 1439.15 111.137 1439.2 111.137Z" fill="white"/>
<path d="M1422.83 93.9514C1422.73 94.0403 1422.63 94.2108 1422.53 94.2997L1438.9 111.018L1438.95 111.04H1439.05C1439.05 111.084 1439.15 111.129 1439.2 111.129V110.595L1438.9 110.336L1422.83 93.9514Z" fill="white"/>
<path d="M1438.84 27.0057C1438.89 26.9167 1439.04 26.8649 1439.14 26.8649L1439.12 -7.66772L1438.82 -7.62326L1438.84 26.9982V27.0057Z" fill="white"/>
<path d="M1418.23 84.9033C1418.35 84.9033 1418.51 84.9477 1418.61 84.9477L1419.64 -0.16098C1419.53 -0.116518 1419.33 -0.116521 1419.18 -0.0720588L1418.13 84.9477C1418.18 84.9477 1418.18 84.9033 1418.23 84.9033Z" fill="white"/>
<path d="M1438.84 27.0057L1419.59 85.0441C1419.74 85.0886 1419.84 85.133 1420.05 85.1849L1438.84 28.5174L1439.14 27.7467V26.8649C1439.04 26.8649 1438.89 26.9093 1438.84 27.0057Z" fill="white"/>
<path d="M1315.05 115.308L1415.04 -0.768643C1414.91 -0.864979 1414.75 -0.909434 1414.61 -1.05023L1314.68 114.997C1314.8 115.041 1314.91 115.205 1315.05 115.301V115.308Z" fill="white"/>
<path d="M1248.47 9.80605L1308.03 114.567C1308.23 114.523 1308.34 114.426 1308.49 114.33L1248.87 9.59116C1248.73 9.66526 1248.62 9.70972 1248.47 9.79865V9.80605Z" fill="white"/>
<path d="M1240.29 5.96002L1055.67 91.7431C1055.72 91.8617 1055.78 92.0025 1055.92 92.1359L1240.36 6.40465C1240.36 6.21939 1240.31 6.13046 1240.28 5.96002H1240.29Z" fill="white"/>
<path d="M1251.65 3.73693L1412.41 -5.64467V-6.08929L1251.5 3.29231C1251.55 3.4331 1251.65 3.59613 1251.65 3.73693Z" fill="white"/>
<path d="M1250.74 1.52121L1407.78 -74.2282C1407.68 -74.3467 1407.65 -74.4357 1407.6 -74.6283L1250.37 1.1655C1250.48 1.28407 1250.63 1.373 1250.73 1.52121H1250.74Z" fill="white"/>
<path d="M1305.31 118.673L1056.46 94.5591V95.0037L1305.26 119.117C1305.26 118.954 1305.26 118.813 1305.31 118.673Z" fill="white"/>
<path d="M1234.84 582.699C1234.79 582.513 1234.75 582.417 1234.75 582.232L1113.46 628.888C1113.51 628.984 1113.61 629.125 1113.64 629.31L1234.85 582.706L1234.84 582.699Z" fill="white"/>
<path d="M1157.78 360.816C1157.63 360.86 1157.55 360.956 1157.35 361.001L1237.42 576.533C1237.57 576.437 1237.67 576.348 1237.85 576.348L1157.78 360.816H1157.78Z" fill="white"/>
<path d="M1260.26 706.942C1260.1 706.942 1259.87 706.942 1259.78 706.897L1238.32 825.716C1238.5 825.716 1238.65 825.716 1238.8 825.761L1260.26 706.942Z" fill="white"/>
<path d="M1255.98 698.687L1113.6 633.275C1113.55 633.46 1113.45 633.556 1113.4 633.742L1255.72 699.057C1255.82 698.968 1255.87 698.783 1255.97 698.687H1255.98Z" fill="white"/>
<path d="M1255.55 703.392L1059.2 789.627C1059.26 789.716 1059.31 789.909 1059.35 789.998L1255.68 703.807C1255.66 703.666 1255.61 703.57 1255.55 703.385V703.392Z" fill="white"/>
<path d="M1106.64 636.543C1106.49 636.543 1106.31 636.498 1106.16 636.498L1055.26 786.974C1055.52 786.974 1055.62 787.071 1055.75 787.071L1106.64 636.55V636.543Z" fill="white"/>
<path d="M1439.38 784.129L1439.68 785.211L1439.53 564.817L1439.23 565.566L1439.38 784.129Z" fill="white"/>
<path d="M1412.1 663.665C1411.92 663.761 1411.82 663.85 1411.67 663.85L1439.38 786.367C1439.38 786.367 1439.42 786.367 1439.42 786.456H1439.53C1439.58 786.552 1439.62 786.552 1439.67 786.552V785.203L1439.37 784.129L1412.09 663.665H1412.1Z" fill="white"/>
<path d="M1398.21 771.19L1410.23 664.043H1410.18C1410.06 664.043 1409.95 664.043 1409.75 663.954L1397.73 771.101C1397.93 771.101 1398.08 771.19 1398.21 771.19Z" fill="white"/>
<path d="M1366.25 742.934C1366.3 742.749 1366.35 742.704 1366.4 742.608L1266.54 703.251C1266.48 703.348 1266.43 703.488 1266.38 703.577L1366.24 742.934H1366.25Z" fill="white"/>
<path d="M1374.21 739.755L1408.47 663.769C1408.31 663.672 1408.13 663.672 1407.99 663.583L1373.72 739.666C1373.87 739.666 1374.08 739.755 1374.21 739.755Z" fill="white"/>
<path d="M1260.3 696.063L1240.6 586.797H1240.44C1240.3 586.797 1240.21 586.797 1240.12 586.797L1259.81 696.063H1260.29H1260.3Z" fill="white"/>
<path d="M1266.54 699.843L1404.72 660.227C1404.67 660.13 1404.62 659.945 1404.62 659.76L1266.43 699.524C1266.48 699.613 1266.54 699.798 1266.54 699.85V699.843Z" fill="white"/>
<path d="M1365.58 542.379L1245.52 578.578C1245.57 578.764 1245.62 578.949 1245.72 579.045L1365.68 542.838C1365.63 542.653 1365.63 542.564 1365.58 542.371V542.379Z" fill="white"/>
<path d="M1405.2 655.602L1245.82 583.432C1245.77 583.617 1245.73 583.714 1245.57 583.899L1404.95 655.921C1405.05 655.832 1405.15 655.78 1405.2 655.595V655.602Z" fill="white"/>
<path d="M1439.21 545.128L1439.23 563.98C1439.27 563.795 1439.43 563.795 1439.53 563.795L1439.51 545.128H1439.21Z" fill="white"/>
<path d="M1439.22 563.98L1412.02 653.216C1412.1 653.216 1412.25 653.305 1412.39 653.305L1439.23 565.558L1439.52 564.81V563.78C1439.43 563.78 1439.27 563.78 1439.23 563.965L1439.22 563.98Z" fill="white"/>
<path d="M1409.14 653.031L1373.4 546.662C1373.2 546.662 1373.08 546.758 1372.92 546.758L1408.65 653.12C1408.83 653.12 1408.98 653.031 1409.14 653.031Z" fill="white"/>
<path d="M1338.63 422.663L1160.75 356.221V356.621L1338.36 423.041C1338.48 422.952 1338.59 422.856 1338.64 422.67L1338.63 422.663Z" fill="white"/>
<path d="M1089.65 224.864C1089.5 224.908 1089.4 225.005 1089.27 225.101L1153.01 350.671C1153.12 350.626 1153.29 350.604 1153.44 350.552L1089.65 224.864Z" fill="white"/>
<path d="M1317.01 311.107L1159.89 352.835C1159.94 352.931 1160.07 353.072 1160.12 353.213L1317.17 311.544C1317.12 311.433 1317.07 311.292 1317.02 311.107H1317.01Z" fill="white"/>
<path d="M1305.69 121.659L1091.74 217.424C1091.8 217.565 1091.95 217.661 1092 217.817L1305.89 122.052C1305.84 121.866 1305.74 121.77 1305.69 121.659Z" fill="white"/>
<path d="M1317.38 307.742L1092.2 221.67C1092.15 221.811 1092.15 221.944 1092.1 222.085L1317.21 308.179C1317.28 308.039 1317.33 307.92 1317.38 307.735V307.742Z" fill="white"/>
<path d="M1439.35 525.623C1439.35 525.527 1439.24 525.527 1439.24 525.527L1439.2 525.438L1439.21 544.661H1439.51L1439.5 525.623H1439.35Z" fill="white"/>
<path d="M1376.99 541.059C1376.99 541.245 1377.09 541.341 1377.09 541.526L1439.21 545.12H1439.51V544.654H1439.21L1376.99 541.059Z" fill="white"/>
<path d="M1439.2 523.756L1439.5 524.549L1439.4 389.687L1439.1 389.946L1439.2 523.756Z" fill="white"/>
<path d="M1439.35 525.624C1439.35 525.527 1439.24 525.527 1439.24 525.527C1439.24 525.527 1439.35 525.527 1439.35 525.624Z" fill="white"/>
<path d="M1411.33 428.021C1411.13 428.11 1410.97 428.11 1410.84 428.206L1439.19 525.431L1439.24 525.52C1439.24 525.52 1439.34 525.52 1439.34 525.616H1439.49V524.542L1439.19 523.749L1411.33 428.013V428.021Z" fill="white"/>
<path d="M1346.13 430.955L1369.84 536.028H1370.32L1346.56 430.681C1346.46 430.77 1346.26 430.77 1346.13 430.955H1346.13Z" fill="white"/>
<path d="M1373.03 536.117L1407.49 428.11C1407.34 428.11 1407.19 428.11 1407.01 428.021L1372.55 536.028C1372.68 536.028 1372.88 536.117 1373.03 536.117H1373.03Z" fill="white"/>
<path d="M1344.43 420.603L1323.73 315.464C1323.53 315.464 1323.4 315.464 1323.25 315.486L1343.9 420.514C1344.05 420.514 1344.28 420.514 1344.43 420.603H1344.43Z" fill="white"/>
<path d="M1349.08 425.316L1403.44 422.337C1403.44 422.241 1403.49 422.055 1403.49 421.87L1349.03 424.894C1349.03 425.034 1349.03 425.22 1349.07 425.316H1349.08Z" fill="white"/>
<path d="M1439.09 377.912V389.249H1439.14C1439.24 389.153 1439.34 389.153 1439.39 389.153V377.978C1439.33 377.978 1439.29 377.978 1439.24 377.978L1439.09 377.912Z" fill="white"/>
<path d="M1439.15 389.249H1439.1L1412.36 418.083C1412.51 418.224 1412.65 418.224 1412.76 418.321L1439.1 389.953L1439.4 389.694V389.161C1439.35 389.161 1439.25 389.161 1439.15 389.257V389.249Z" fill="white"/>
<path d="M1406.47 417.898L1326.28 314.523C1326.08 314.567 1325.98 314.686 1325.85 314.73L1406.09 418.083C1406.17 417.987 1406.32 417.987 1406.47 417.898Z" fill="white"/>
<path d="M1439.22 347.766C1439.22 347.766 1439.12 347.766 1439.12 347.744L1439.07 347.655V347.61L1439.09 377.378L1439.39 377.541L1439.37 347.818C1439.32 347.818 1439.27 347.818 1439.22 347.773V347.766Z" fill="white"/>
<path d="M1327.77 312.803C1327.67 312.915 1327.62 313.063 1327.51 313.204L1439.09 377.919L1439.24 377.986H1439.38V377.541L1439.09 377.378L1327.77 312.803Z" fill="white"/>
<path d="M1439.07 345.246L1439.37 346.41L1439.22 135.798L1438.92 136.591L1439.07 345.246Z" fill="white"/>
<path d="M1439.22 347.766L1439.12 347.744L1439.22 347.766Z" fill="white"/>
<path d="M1414.18 224.197C1414.06 224.197 1413.9 224.197 1413.7 224.242L1439.06 347.603V347.647L1439.11 347.736L1439.21 347.758C1439.27 347.803 1439.31 347.803 1439.36 347.803V346.402L1439.06 345.239L1414.18 224.19L1414.18 224.197Z" fill="white"/>
<path d="M1322.33 304.541L1311.65 124.853C1311.5 124.853 1311.37 124.875 1311.17 124.875L1321.84 304.541H1322.33H1322.33Z" fill="white"/>
<path d="M1326.71 305.919L1408.83 222.826C1408.68 222.752 1408.58 222.656 1408.42 222.567L1326.37 305.615C1326.45 305.712 1326.55 305.778 1326.71 305.919Z" fill="white"/>
<path d="M1438.92 134.961C1438.96 134.864 1439.12 134.82 1439.21 134.82L1439.2 117.131L1438.9 117.176L1438.92 134.953V134.961Z" fill="white"/>
<path d="M1438.9 116.694L1316.77 119.162C1316.82 119.303 1316.82 119.436 1316.82 119.599L1438.9 117.183L1439.2 117.139V116.701H1438.9V116.694Z" fill="white"/>
<path d="M1438.92 134.961L1414.12 213.393C1414.32 213.437 1414.47 213.467 1414.61 213.504L1438.92 136.591L1439.21 135.798V134.82C1439.12 134.82 1438.96 134.864 1438.92 134.961Z" fill="white"/>
<path d="M1409.05 214.489L1315.28 123.237C1315.21 123.334 1315.11 123.423 1314.96 123.541L1408.72 214.793C1408.82 214.719 1408.9 214.63 1409.05 214.489Z" fill="white"/>
<path d="M1212.83 -73.954C1212.74 -74.0503 1212.58 -74.117 1212.43 -74.2578L1054.39 90.2314C1054.49 90.3203 1054.59 90.4167 1054.69 90.5352L1212.83 -73.954Z" fill="white"/>
<path d="M1092.1 222.093C1092.15 221.952 1092.15 221.818 1092.2 221.678C1092.58 220.396 1092.47 219.017 1091.99 217.824C1091.94 217.661 1091.79 217.565 1091.74 217.431C1090.93 215.749 1089.27 214.564 1086.66 214.564C1086.28 214.564 1085.9 214.586 1085.6 214.638C1085.42 214.638 1085.27 214.682 1085.12 214.682C1078.98 216.06 1079.47 225.649 1086.67 225.649C1087.68 225.649 1088.49 225.412 1089.27 225.109C1089.39 225.02 1089.5 224.923 1089.64 224.871C1090.83 224.219 1091.66 223.241 1092.09 222.093H1092.1Z" fill="white"/>
<path d="M1316.55 117.761C1316.29 116.827 1315.77 115.938 1315.05 115.308C1314.91 115.212 1314.81 115.049 1314.68 115.004C1313.76 114.286 1312.55 113.841 1311.02 113.841C1310.06 113.841 1309.25 114.026 1308.49 114.337C1308.35 114.426 1308.24 114.523 1308.04 114.575C1306.42 115.456 1305.56 117.005 1305.32 118.68C1305.27 118.821 1305.27 118.962 1305.27 119.125C1305.21 119.992 1305.36 120.873 1305.7 121.666C1305.75 121.778 1305.85 121.874 1305.9 122.059C1306.76 123.689 1308.45 124.883 1311.02 124.883H1311.17C1311.38 124.883 1311.51 124.86 1311.66 124.86C1313.04 124.764 1314.16 124.275 1314.97 123.556C1315.11 123.437 1315.22 123.349 1315.29 123.252C1316.26 122.222 1316.78 120.896 1316.83 119.614C1316.83 119.451 1316.83 119.31 1316.78 119.176C1316.78 118.821 1316.73 118.473 1316.68 118.176C1316.66 118.035 1316.65 117.895 1316.55 117.776L1316.55 117.761Z" fill="white"/>
<path d="M1418.23 84.9033C1418.18 84.9033 1418.18 84.9477 1418.13 84.9477C1414.04 84.9996 1412.22 88.1491 1412.48 91.0836C1412.53 91.2022 1412.53 91.3874 1412.53 91.5282C1413.01 93.8625 1414.88 95.9596 1418.23 95.9596C1420.16 95.9596 1421.51 95.3297 1422.53 94.2997C1422.63 94.2108 1422.73 94.0403 1422.83 93.9514C1425.05 91.0984 1424.13 86.2742 1420.05 85.1775C1419.84 85.133 1419.74 85.0811 1419.59 85.0367C1419.3 84.9922 1418.89 84.9403 1418.61 84.9403C1418.51 84.9403 1418.36 84.8959 1418.23 84.8959V84.9033Z" fill="white"/>
<path d="M1251.65 3.73691C1251.65 3.59611 1251.55 3.43309 1251.5 3.29229C1251.35 2.6624 1251.12 2.05475 1250.74 1.5212C1250.64 1.3804 1250.49 1.28406 1250.39 1.16549C1249.43 0.00205195 1247.98 -0.790863 1245.94 -0.790863C1245.21 -0.790863 1244.63 -0.65006 1244.07 -0.531494C1243.93 -0.487031 1243.78 -0.435156 1243.6 -0.390694C1240.85 0.683818 1239.76 3.46272 1240.3 5.96003C1240.33 6.13047 1240.38 6.2194 1240.38 6.40466C1241.01 8.53146 1242.88 10.2507 1245.96 10.2507C1246.92 10.2507 1247.72 10.1099 1248.48 9.80605C1248.63 9.71712 1248.73 9.66525 1248.88 9.59856C1251.13 8.38325 1252.04 5.95263 1251.66 3.74432L1251.65 3.73691Z" fill="white"/>
<path d="M1409.05 214.489C1408.9 214.63 1408.82 214.727 1408.72 214.793C1406.6 216.846 1406.5 220.396 1408.42 222.559C1408.58 222.648 1408.68 222.745 1408.83 222.819C1409.79 223.701 1411.08 224.286 1412.85 224.286C1413.14 224.286 1413.48 224.234 1413.71 224.234C1413.91 224.19 1414.06 224.19 1414.19 224.19C1419.94 223.085 1420.04 214.971 1414.61 213.504C1414.49 213.459 1414.33 213.437 1414.13 213.393C1413.8 213.296 1413.32 213.252 1412.84 213.252C1411.24 213.252 1409.96 213.785 1409.05 214.489Z" fill="white"/>
<path d="M1326.71 305.919C1326.56 305.778 1326.45 305.712 1326.37 305.615C1325.44 304.941 1324.25 304.496 1322.71 304.496C1322.56 304.496 1322.44 304.496 1322.33 304.541H1321.85C1319.56 304.822 1318.07 306.156 1317.38 307.742C1317.33 307.927 1317.29 308.046 1317.21 308.187C1316.9 309.121 1316.86 310.143 1317.01 311.107C1317.06 311.292 1317.1 311.433 1317.15 311.544C1317.74 313.715 1319.61 315.531 1322.71 315.531C1322.87 315.531 1323.1 315.486 1323.25 315.486C1323.4 315.464 1323.53 315.464 1323.73 315.464C1324.49 315.323 1325.27 315.041 1325.85 314.738C1325.98 314.693 1326.08 314.575 1326.28 314.53C1326.81 314.16 1327.19 313.693 1327.51 313.204C1327.62 313.063 1327.67 312.922 1327.77 312.803C1329 310.588 1328.62 307.646 1326.7 305.927L1326.71 305.919Z" fill="white"/>
<path d="M1406.47 417.898C1406.32 417.987 1406.18 417.987 1406.09 418.083C1404.6 418.965 1403.72 420.366 1403.5 421.863C1403.5 422.048 1403.44 422.233 1403.44 422.33C1403.24 424.753 1404.45 427.087 1407.01 428.021C1407.19 428.11 1407.34 428.11 1407.49 428.11C1408.02 428.302 1408.53 428.391 1409.2 428.391C1409.79 428.391 1410.37 428.302 1410.85 428.206C1410.98 428.11 1411.13 428.11 1411.33 428.021C1415.65 426.62 1416.17 420.833 1412.77 418.313C1412.66 418.217 1412.51 418.217 1412.36 418.076C1411.5 417.654 1410.44 417.283 1409.2 417.283C1408.14 417.283 1407.24 417.565 1406.48 417.891L1406.47 417.898Z" fill="white"/>
<path d="M1349.08 425.316C1349.03 425.22 1349.03 425.034 1349.03 424.894C1348.6 422.841 1347.09 420.974 1344.43 420.603C1344.29 420.514 1344.05 420.514 1343.91 420.514C1343.76 420.514 1343.52 420.418 1343.32 420.418C1341.18 420.418 1339.59 421.403 1338.62 422.663C1338.57 422.848 1338.47 422.945 1338.34 423.034C1336.7 425.746 1337.56 429.755 1340.88 431.059C1340.98 431.148 1341.23 431.148 1341.35 431.244C1341.94 431.43 1342.57 431.526 1343.33 431.526C1344.44 431.526 1345.35 431.244 1346.13 430.963C1346.26 430.777 1346.47 430.777 1346.56 430.689C1348.43 429.562 1349.29 427.324 1349.09 425.323L1349.08 425.316Z" fill="white"/>
<path d="M1160.74 356.614V356.214C1160.8 355.147 1160.6 354.139 1160.11 353.205C1160.07 353.064 1159.94 352.924 1159.88 352.827C1158.93 351.427 1157.33 350.36 1154.99 350.36C1154.46 350.36 1153.92 350.448 1153.44 350.545C1153.29 350.589 1153.12 350.619 1153.01 350.663C1147.41 352.397 1148.02 361.401 1154.99 361.394C1155.91 361.394 1156.66 361.253 1157.34 360.993C1157.54 360.949 1157.62 360.853 1157.77 360.808C1159.53 359.971 1160.45 358.385 1160.74 356.607V356.614Z" fill="white"/>
<path d="M1240.13 586.797H1240.45C1240.5 586.797 1240.56 586.797 1240.61 586.797C1243.13 586.797 1244.82 585.581 1245.57 583.899C1245.73 583.714 1245.77 583.618 1245.82 583.432C1246.41 582.032 1246.35 580.446 1245.72 579.045C1245.62 578.949 1245.57 578.764 1245.52 578.578C1244.96 577.511 1243.95 576.622 1242.64 576.155C1242.46 576.111 1242.31 576.111 1242.16 576.014C1241.65 575.925 1241.08 575.829 1240.44 575.829C1239.44 575.829 1238.57 576.014 1237.85 576.348C1237.67 576.348 1237.57 576.437 1237.42 576.533C1235.32 577.704 1234.41 579.986 1234.75 582.224C1234.75 582.41 1234.79 582.506 1234.84 582.691C1235.32 584.885 1237.1 586.745 1240.13 586.789V586.797Z" fill="white"/>
<path d="M1373.03 536.117C1372.87 536.117 1372.67 536.028 1372.54 536.028C1372.11 535.931 1371.71 535.931 1371.28 535.931C1370.95 535.931 1370.63 535.931 1370.32 536.028H1369.84C1366.59 536.724 1365.15 539.763 1365.58 542.379C1365.63 542.564 1365.63 542.653 1365.68 542.845C1366.21 545.083 1368.03 547.047 1371.29 547.04C1371.87 547.04 1372.45 546.951 1372.93 546.758C1373.09 546.758 1373.21 546.662 1373.41 546.662C1375.81 545.869 1377 543.72 1377.09 541.526C1377.09 541.341 1376.99 541.245 1376.99 541.059C1376.86 538.822 1375.55 536.821 1373.03 536.117Z" fill="white"/>
<path d="M1409.14 653.031C1408.98 653.031 1408.83 653.12 1408.65 653.12C1407.01 653.49 1405.85 654.432 1405.2 655.595C1405.14 655.78 1405.05 655.832 1404.94 655.921C1404.41 657.181 1404.29 658.537 1404.62 659.752C1404.62 659.937 1404.67 660.123 1404.72 660.219C1405.2 661.709 1406.29 663.02 1407.98 663.576C1408.13 663.665 1408.31 663.665 1408.46 663.761C1408.89 663.85 1409.27 663.947 1409.75 663.947C1409.95 664.035 1410.05 664.035 1410.18 664.035H1410.23C1410.71 664.035 1411.19 663.947 1411.67 663.85C1411.82 663.85 1411.92 663.761 1412.1 663.665C1417.14 662.264 1417.29 654.987 1412.39 653.305C1412.24 653.305 1412.09 653.216 1412.01 653.216C1411.38 653.031 1410.8 652.935 1410.17 652.935C1409.78 652.935 1409.46 653.031 1409.14 653.031Z" fill="white"/>
<path d="M1056.47 95.0037V94.5591C1056.47 93.7217 1056.21 92.8843 1055.93 92.1284C1055.78 91.9876 1055.73 91.8543 1055.68 91.7357C1055.45 91.2911 1055.07 90.8983 1054.69 90.5204C1054.59 90.4092 1054.49 90.3129 1054.39 90.2166C1053.43 89.5644 1052.24 89.1198 1050.7 89.1198C1042.97 89.1198 1042.98 100.117 1050.71 100.109C1051.24 100.109 1051.77 100.058 1052.25 99.9687C1052.38 99.9242 1052.53 99.8723 1052.68 99.8279C1055.08 99.0794 1056.27 97.0934 1056.47 94.9963V95.0037Z" fill="white"/>
<path d="M1108.23 636.728C1110.85 636.728 1112.55 635.513 1113.4 633.734C1113.45 633.549 1113.55 633.453 1113.6 633.267C1114.08 632.052 1114.1 630.563 1113.62 629.303C1113.6 629.118 1113.5 628.977 1113.44 628.88C1112.63 627.109 1110.89 625.761 1108.21 625.761C1101.24 625.761 1100.55 634.727 1106.15 636.491C1106.3 636.491 1106.48 636.535 1106.62 636.535C1107.11 636.624 1107.64 636.721 1108.22 636.721L1108.23 636.728Z" fill="white"/>
<path d="M1260.96 707.031C1263.84 707.031 1265.63 705.534 1266.38 703.57C1266.43 703.481 1266.48 703.34 1266.54 703.244C1266.81 702.125 1266.81 700.91 1266.54 699.835C1266.54 699.791 1266.48 699.598 1266.43 699.509C1265.67 697.553 1263.88 695.967 1260.95 695.967C1260.77 695.967 1260.57 695.967 1260.3 696.056H1259.82C1258 696.389 1256.69 697.368 1255.98 698.672C1255.89 698.768 1255.84 698.953 1255.74 699.042C1255.13 700.354 1255.03 701.984 1255.56 703.385C1255.61 703.57 1255.66 703.666 1255.69 703.807C1256.42 705.349 1257.71 706.608 1259.78 706.89C1259.87 706.934 1260.1 706.934 1260.26 706.934C1260.46 706.934 1260.73 707.023 1260.96 707.023L1260.96 707.031Z" fill="white"/>
<g opacity="0.6">
<path d="M972.855 54.3723C972.654 54.3723 972.528 54.4168 972.328 54.4168L977.923 150.7C978.049 150.7 978.205 150.656 978.457 150.656L972.855 54.3649V54.3723Z" fill="white"/>
<path d="M1121.66 97.3157L1114.53 53.0385C1114.33 53.0829 1114.19 53.1348 1114.05 53.1793L1121.12 97.4121C1121.28 97.3676 1121.51 97.3676 1121.66 97.3157Z" fill="white"/>
<path d="M1117.72 99.5833L977.649 50.5263C977.597 50.6894 977.552 50.8302 977.5 50.9636L1117.44 99.9835C1117.54 99.8427 1117.67 99.7464 1117.72 99.5833Z" fill="white"/>
<path d="M1125.6 97.8493L1204.87 10.184C1204.74 10.1173 1204.59 10.021 1204.49 9.88016L1125.12 97.6122C1125.25 97.6566 1125.41 97.753 1125.61 97.8493H1125.6Z" fill="white"/>
<path d="M1128.65 103.726L1197.7 125.816C1197.75 125.675 1197.9 125.535 1197.95 125.372L1128.75 103.252C1128.75 103.415 1128.75 103.555 1128.65 103.718V103.726Z" fill="white"/>
<path d="M1140.69 224.975L1200.69 133.212C1200.56 133.167 1200.42 133.071 1200.26 132.982L1140.21 224.827C1140.37 224.871 1140.57 224.923 1140.69 224.968L1140.69 224.975Z" fill="white"/>
<path d="M1118.21 45.1019L1203.14 8.01275C1202.99 7.84972 1202.94 7.70891 1202.9 7.56812L1117.99 44.7018C1118.06 44.8203 1118.16 44.9611 1118.22 45.0945L1118.21 45.1019Z" fill="white"/>
<path d="M1182.21 -25.8677C1182.12 -26.0085 1182.06 -26.1493 1181.97 -26.2605L1116.67 43.0122C1116.77 43.1529 1116.92 43.2863 1117.02 43.3827L1182.21 -25.8603V-25.8677Z" fill="white"/>
<path d="M1137.3 224.627C1137.43 224.582 1137.58 224.582 1137.81 224.582L1123.26 108.706C1123.05 108.75 1122.96 108.75 1122.73 108.794L1137.3 224.627Z" fill="white"/>
<path d="M1116.66 103.177L983.808 153.576C983.904 153.717 983.956 153.857 984.008 154.02L1116.71 103.666C1116.71 103.481 1116.66 103.296 1116.66 103.177Z" fill="white"/>
<path d="M1117.78 106.438L981.329 281.242C981.456 281.287 981.656 281.383 981.812 281.48L1118.06 106.838C1117.99 106.727 1117.88 106.579 1117.78 106.445V106.438Z" fill="white"/>
<path d="M978.487 162.187C978.413 162.187 978.257 162.187 978.153 162.142L977.433 280.805C977.582 280.761 977.715 280.761 977.96 280.761L978.636 162.194H978.487V162.187Z" fill="white"/>
<path d="M972.699 154.747C972.721 154.606 972.773 154.465 972.825 154.302L811.228 115.923C811.228 116.109 811.176 116.249 811.124 116.361L972.699 154.747Z" fill="white"/>
<path d="M809.209 119.162L973.775 282.858C973.827 282.762 973.923 282.576 974.027 282.48L809.588 118.858C809.513 118.999 809.358 119.065 809.209 119.162Z" fill="white"/>
<path d="M1280.17 447.903C1280.27 447.903 1280.37 447.992 1280.5 447.992L1283.12 266.933C1282.87 266.933 1282.72 266.977 1282.6 266.977L1279.97 447.984C1280.07 447.984 1280.12 447.896 1280.17 447.896V447.903Z" fill="white"/>
<path d="M1132.11 230.511L984.001 283.814C984.053 283.955 984.157 284.088 984.201 284.259L1132.1 231.007V230.518L1132.11 230.511Z" fill="white"/>
<path d="M1144.14 230.2L1276.73 259.108C1276.78 258.922 1276.87 258.774 1276.93 258.663L1144.14 229.71V230.2Z" fill="white"/>
<path d="M1082.54 411.132L1277.42 264.584C1277.36 264.517 1277.26 264.332 1277.16 264.236L1082.22 410.71C1082.29 410.806 1082.39 410.947 1082.55 411.132H1082.54Z" fill="white"/>
<path d="M1079.08 408.939C1079.29 408.939 1079.41 409.035 1079.56 409.035L1135.94 235.713C1135.82 235.668 1135.62 235.668 1135.46 235.617L1079.08 408.939H1079.08Z" fill="white"/>
<path d="M1280.08 255.81C1280.18 255.765 1280.41 255.721 1280.56 255.721L1207.28 132.486C1207.18 132.626 1207.03 132.723 1206.88 132.767L1280.09 255.81H1280.08Z" fill="white"/>
<path d="M1204.04 122.267C1204.24 122.267 1204.39 122.267 1204.51 122.289L1209.14 11.2511C1209.01 11.2956 1208.8 11.2956 1208.65 11.2956L1204.04 122.259V122.267Z" fill="white"/>
<path d="M1366.1 323.712C1366.21 323.571 1366.28 323.475 1366.48 323.408L1287.92 263.643C1287.86 263.784 1287.81 263.969 1287.72 264.087L1366.1 323.712Z" fill="white"/>
<path d="M1283.3 448.644C1283.43 448.733 1283.63 448.829 1283.73 448.918L1366.97 332.085C1366.77 331.989 1366.69 331.9 1366.59 331.826L1283.3 448.637V448.644Z" fill="white"/>
<path d="M1334.86 840.159C1334.99 840.07 1335.19 839.974 1335.34 839.885L1258.26 675.825C1258.11 675.825 1257.98 675.914 1257.78 675.914L1334.86 840.159Z" fill="white"/>
<path d="M1150.17 782.476L1251.49 674.514C1251.4 674.425 1251.32 674.329 1251.22 674.143L1149.82 782.195C1149.92 782.291 1150.02 782.38 1150.17 782.476Z" fill="white"/>
<path d="M1144.69 781.172C1144.85 781.083 1145.08 781.083 1145.23 781.083L1108.72 564.684C1108.52 564.773 1108.31 564.773 1108.18 564.773L1144.69 781.172Z" fill="white"/>
<path d="M1255.71 664.665H1255.91C1256.01 664.665 1256.11 664.665 1256.18 664.665L1279.7 459.471C1279.55 459.471 1279.42 459.382 1279.22 459.382L1255.71 664.673V664.665Z" fill="white"/>
<path d="M1112.29 562.994L1250.86 667.051C1250.96 666.866 1251.11 666.77 1251.21 666.681L1112.55 562.535C1112.44 562.72 1112.39 562.913 1112.29 563.002V562.994Z" fill="white"/>
<path d="M1083.45 415.838L1274.21 452.564C1274.26 452.475 1274.31 452.29 1274.36 452.097L1083.6 415.371C1083.6 415.556 1083.5 415.742 1083.45 415.838Z" fill="white"/>
<path d="M1112.97 555.999L1275 456.914C1274.95 456.773 1274.9 456.588 1274.8 456.492L1112.72 555.628C1112.81 555.725 1112.92 555.814 1112.97 555.999Z" fill="white"/>
<path d="M886.869 887.467L873.533 696.53C873.378 696.53 873.251 696.575 873.051 696.575L886.386 887.46H886.869V887.467Z" fill="white"/>
<path d="M979.994 571.398C979.89 571.494 979.741 571.679 979.615 571.679L1142.14 782.202C1142.24 782.106 1142.44 782.017 1142.57 781.92L979.994 571.398Z" fill="white"/>
<path d="M1140.43 784.529L878.854 692.506C878.802 692.692 878.75 692.884 878.706 692.973L1140.23 784.996C1140.33 784.811 1140.37 784.714 1140.43 784.529Z" fill="white"/>
<path d="M972.217 571.309L876.554 685.933C876.68 686.03 876.784 686.119 876.984 686.215L972.595 571.59C972.521 571.501 972.365 571.405 972.217 571.316V571.309Z" fill="white"/>
<path d="M798.389 589.627C798.241 589.724 798.041 589.813 797.937 589.909L869.259 686.119C869.363 686.03 869.541 685.933 869.689 685.889L798.397 589.62L798.389 589.627Z" fill="white"/>
<path d="M1205.87 0.313282C1205.97 0.26882 1206.17 0.216948 1206.35 0.128021L1190.4 -25.0378C1190.22 -24.9414 1190.07 -24.8748 1189.92 -24.8303L1205.87 0.313282Z" fill="white"/>
<path d="M1213.74 2.3365L1360.43 -95.9406H1359.51L1213.44 1.94375C1213.48 2.08455 1213.64 2.1957 1213.74 2.3365H1213.74Z" fill="white"/>
<path d="M1106.65 46.8359L977.983 48.5552C977.983 48.7404 977.983 48.859 977.931 48.9998L1106.65 47.325V46.8359Z" fill="white"/>
<path d="M1109.62 42.4045L990.175 -95.6813H989.537L1109.24 42.6639C1109.35 42.5676 1109.47 42.4935 1109.63 42.4045H1109.62Z" fill="white"/>
<path d="M1107.28 44.761C1107.37 44.6721 1107.43 44.4794 1107.45 44.3386L891.025 -45.7054C891.002 -45.5646 890.95 -45.4016 890.898 -45.2608L1107.28 44.761Z" fill="white"/>
<path d="M889.637 -43.3934C889.511 -43.3045 889.407 -43.1859 889.258 -43.0896L967.846 44.3238C967.942 44.183 968.046 44.0867 968.194 43.9903L889.629 -43.3934H889.637Z" fill="white"/>
<path d="M970.146 567.248L800.586 583.84C800.638 584.032 800.638 584.121 800.638 584.307L970.25 567.767C970.25 567.581 970.153 567.441 970.153 567.248H970.146Z" fill="white"/>
<path d="M962.851 440.189C962.777 440.1 962.673 440.003 962.569 439.818L798.805 580.579C798.879 580.668 799.035 580.765 799.132 580.95L962.851 440.189Z" fill="white"/>
<path d="M1101.73 559.645C1101.73 559.548 1101.68 559.363 1101.68 559.178L982.183 566.359C982.183 566.448 982.235 566.633 982.235 566.825L1101.73 559.652V559.645Z" fill="white"/>
<path d="M976.098 561.038L968.061 442.152H967.526L975.571 561.134C975.719 561.134 975.868 561.038 976.098 561.038Z" fill="white"/>
<path d="M1106.05 553.39C1106.2 553.301 1106.38 553.301 1106.53 553.301L1078.99 420.188C1078.86 420.188 1078.66 420.188 1078.46 420.232L1106.05 553.39Z" fill="white"/>
<path d="M1103.22 554.976L972.276 440.092C972.127 440.181 972.075 440.278 971.979 440.463L1102.91 555.347C1103 555.25 1103.08 555.065 1103.23 554.969L1103.22 554.976Z" fill="white"/>
<path d="M1074.14 409.687L981.864 291.395C981.715 291.484 981.567 291.58 981.433 291.632L1073.7 409.969C1073.85 409.873 1073.95 409.784 1074.14 409.687Z" fill="white"/>
<path d="M1071.61 415.386L973.33 434.675C973.382 434.772 973.404 434.957 973.404 435.142L1071.72 415.846C1071.66 415.757 1071.66 415.571 1071.61 415.379V415.386Z" fill="white"/>
<path d="M967.949 430.718L977.5 292.173C977.3 292.128 977.144 292.128 977.018 292.077L967.519 430.622C967.645 430.622 967.801 430.622 967.949 430.718Z" fill="white"/>
<path d="M1366.1 323.712C1364.14 326.024 1364.31 329.736 1366.59 331.826C1366.69 331.9 1366.77 331.989 1366.97 332.085C1367.88 332.834 1369.17 333.323 1370.76 333.323C1378.81 333.323 1378.81 321.748 1370.76 321.748C1368.89 321.748 1367.5 322.422 1366.49 323.408C1366.29 323.475 1366.21 323.571 1366.11 323.712H1366.1Z" fill="white"/>
<path d="M1276.93 258.663C1276.87 258.774 1276.78 258.922 1276.73 259.108C1276.09 260.745 1276.25 262.702 1277.16 264.236C1277.25 264.332 1277.36 264.517 1277.41 264.584C1278.4 266.007 1280.04 266.985 1282.43 266.985H1282.59C1282.71 266.985 1282.86 266.94 1283.11 266.933C1285.31 266.726 1286.85 265.599 1287.71 264.087C1287.8 263.969 1287.86 263.784 1287.91 263.643C1289.42 260.234 1287.6 255.402 1282.42 255.41C1281.72 255.41 1281.08 255.551 1280.55 255.714C1280.41 255.714 1280.18 255.758 1280.07 255.803C1278.53 256.343 1277.53 257.418 1276.92 258.656L1276.93 258.663Z" fill="white"/>
<path d="M1203.43 122.222C1200.62 122.222 1198.81 123.601 1197.95 125.372C1197.9 125.535 1197.75 125.675 1197.7 125.816C1196.74 128.336 1197.63 131.582 1200.25 132.975C1200.41 133.064 1200.56 133.16 1200.68 133.204C1201.47 133.56 1202.38 133.745 1203.44 133.745C1204.83 133.745 1205.97 133.367 1206.87 132.76C1207.02 132.715 1207.17 132.619 1207.27 132.478C1210.86 129.699 1209.94 123.141 1204.51 122.281C1204.39 122.259 1204.24 122.259 1204.04 122.259C1203.86 122.215 1203.61 122.215 1203.43 122.215V122.222Z" fill="white"/>
<path d="M1208.62 -0.220245C1207.74 -0.220245 1206.98 -0.0794464 1206.35 0.128046C1206.17 0.216971 1205.97 0.268844 1205.87 0.313306C1202.94 1.59531 1201.93 4.91517 1202.9 7.56811C1202.94 7.70891 1202.99 7.84971 1203.14 8.01274C1203.42 8.73896 1203.85 9.34662 1204.48 9.88017C1204.59 10.021 1204.74 10.1173 1204.86 10.184C1205.83 10.9102 1207.09 11.303 1208.62 11.303H1208.65C1208.79 11.303 1208.99 11.303 1209.13 11.2585C1214.33 10.9473 1215.84 5.62659 1213.74 2.34377C1213.64 2.20297 1213.48 2.08439 1213.44 1.951C1212.45 0.713463 1210.81 -0.212839 1208.62 -0.212839L1208.62 -0.220245Z" fill="white"/>
<path d="M1106.65 46.8359V47.325C1106.55 50.2373 1108.52 53.246 1112.66 53.246C1113.14 53.246 1113.62 53.2015 1114.05 53.1793C1114.18 53.1348 1114.33 53.0829 1114.53 53.0385C1118.27 52.0529 1119.51 48.0661 1118.22 45.1019C1118.16 44.9611 1118.06 44.8277 1117.99 44.7092C1117.73 44.2201 1117.41 43.7754 1117.02 43.3827C1116.92 43.2863 1116.77 43.1456 1116.67 43.0122C1115.66 42.2711 1114.33 41.7302 1112.66 41.7302C1111.49 41.7302 1110.48 42.0118 1109.63 42.4119C1109.47 42.5008 1109.35 42.575 1109.24 42.6713C1108.46 43.1085 1107.91 43.6939 1107.45 44.346C1107.43 44.4868 1107.38 44.6721 1107.28 44.7684C1106.94 45.4206 1106.74 46.1245 1106.64 46.8508L1106.65 46.8359Z" fill="white"/>
<path d="M805.373 120.451C806.968 120.451 808.252 119.955 809.209 119.162C809.358 119.073 809.513 118.999 809.588 118.858C810.322 118.176 810.857 117.339 811.124 116.361C811.176 116.249 811.228 116.109 811.228 115.923C811.955 112.7 810.033 108.876 805.365 108.876C798.323 108.876 797.469 117.583 802.545 119.843C802.746 119.918 802.879 119.955 803.027 120.051C803.755 120.288 804.467 120.444 805.373 120.444V120.451Z" fill="white"/>
<path d="M978.161 162.142C978.264 162.187 978.413 162.187 978.495 162.187H978.643C983.741 162.038 985.507 157.399 984.016 154.013C983.964 153.85 983.912 153.709 983.815 153.568C982.903 151.886 981.188 150.656 978.487 150.656H978.465C978.213 150.656 978.064 150.7 977.931 150.7C975.229 150.871 973.515 152.383 972.832 154.295C972.78 154.458 972.729 154.598 972.706 154.739C971.779 157.963 973.567 161.949 978.168 162.135L978.161 162.142Z" fill="white"/>
<path d="M977.5 50.9636C977.552 50.8228 977.597 50.6894 977.649 50.5263C977.849 50.0372 977.931 49.5407 977.923 49.0072C977.975 48.8664 977.975 48.7478 977.975 48.5626C977.923 45.7466 975.927 42.8936 971.882 42.901C970.391 42.901 969.159 43.3456 968.194 43.9978C968.046 44.0941 967.942 44.183 967.846 44.3312C964.261 47.3843 965.552 54.528 971.89 54.528C972.09 54.528 972.172 54.4316 972.32 54.4316C972.521 54.4316 972.647 54.3872 972.847 54.3872C975.244 54.1352 976.84 52.7495 977.493 50.9784L977.5 50.9636Z" fill="white"/>
<path d="M1117.72 99.5833C1117.67 99.7464 1117.54 99.8353 1117.44 99.9835C1116.91 100.962 1116.66 102.058 1116.66 103.177C1116.66 103.289 1116.71 103.481 1116.71 103.666C1116.81 104.667 1117.19 105.652 1117.77 106.445C1117.87 106.586 1117.97 106.727 1118.05 106.838C1119.06 107.957 1120.6 108.794 1122.72 108.794C1122.95 108.75 1123.05 108.75 1123.25 108.706C1126.56 108.543 1128.43 106.223 1128.65 103.733C1128.75 103.57 1128.75 103.429 1128.75 103.266C1128.86 101.073 1127.79 98.8571 1125.59 97.8567C1125.39 97.7678 1125.24 97.6715 1125.11 97.6196C1124.37 97.4121 1123.62 97.1824 1122.71 97.1824C1122.33 97.1824 1121.98 97.2268 1121.65 97.3232C1121.5 97.3676 1121.27 97.3676 1121.12 97.4195C1119.58 97.7233 1118.5 98.5162 1117.71 99.5908L1117.72 99.5833Z" fill="white"/>
<path d="M1132.11 230.511V231C1132.31 232.956 1133.42 234.727 1135.47 235.617C1135.62 235.661 1135.82 235.661 1135.95 235.713C1136.58 235.972 1137.34 236.106 1138.13 236.106C1142.19 236.106 1144.26 233.141 1144.16 230.199V229.71C1143.93 227.724 1142.82 225.857 1140.69 224.975C1140.57 224.931 1140.37 224.879 1140.21 224.834C1139.6 224.671 1138.92 224.486 1138.12 224.486C1138.01 224.486 1137.92 224.582 1137.81 224.582C1137.58 224.582 1137.44 224.582 1137.31 224.627C1133.75 224.975 1132.03 227.776 1132.11 230.511H1132.11Z" fill="white"/>
<path d="M978.584 292.232C979.689 292.232 980.654 292.025 981.433 291.625C981.559 291.58 981.715 291.484 981.864 291.387C984.394 289.935 985.218 286.786 984.209 284.244C984.164 284.073 984.06 283.94 984.008 283.799C983.533 282.888 982.821 282.028 981.812 281.472C981.656 281.376 981.455 281.28 981.329 281.235C980.595 280.879 979.637 280.679 978.576 280.679C978.346 280.679 978.146 280.679 977.968 280.746C977.723 280.746 977.589 280.746 977.441 280.79C976.001 280.976 974.843 281.583 974.035 282.473C973.931 282.569 973.834 282.754 973.782 282.851C973.5 283.199 973.278 283.547 973.077 283.947C973.025 284.088 972.929 284.251 972.877 284.392C971.845 287.356 973.233 291.232 977.025 292.062C977.151 292.106 977.307 292.106 977.508 292.158C977.834 292.203 978.213 292.225 978.591 292.225L978.584 292.232Z" fill="white"/>
<path d="M967.526 442.152H968.061C969.723 441.967 971.014 441.448 971.972 440.47C972.068 440.285 972.12 440.189 972.268 440.1C973.404 438.699 973.753 436.832 973.404 435.157C973.404 434.972 973.381 434.786 973.329 434.69C972.647 432.593 970.933 430.822 967.949 430.726C967.801 430.629 967.653 430.629 967.519 430.629C961.76 430.629 960.128 436.469 962.577 439.826C962.681 440.011 962.777 440.107 962.859 440.196C963.868 441.456 965.463 442.16 967.526 442.16V442.152Z" fill="white"/>
<path d="M1077.59 408.754C1076.2 408.754 1075.01 409.176 1074.14 409.687C1073.96 409.784 1073.85 409.873 1073.7 409.969C1072.03 411.325 1071.31 413.422 1071.61 415.386C1071.66 415.571 1071.66 415.757 1071.72 415.853C1072.22 418.232 1074.19 420.24 1077.6 420.232H1078.46C1078.66 420.181 1078.86 420.181 1078.99 420.181C1081.53 419.766 1083.08 417.987 1083.46 415.838C1083.51 415.749 1083.61 415.564 1083.61 415.371C1083.79 413.874 1083.41 412.288 1082.55 411.125C1082.39 410.94 1082.3 410.799 1082.22 410.703C1081.59 409.954 1080.67 409.354 1079.56 409.028C1079.41 409.028 1079.29 408.932 1079.08 408.932C1078.6 408.835 1078.12 408.746 1077.59 408.746L1077.59 408.754Z" fill="white"/>
<path d="M1280.5 447.992C1280.37 447.992 1280.27 447.903 1280.16 447.903C1280.12 447.903 1280.06 447.992 1279.96 447.992C1276.81 448.044 1274.94 449.904 1274.36 452.097C1274.31 452.29 1274.26 452.475 1274.21 452.564C1273.99 453.876 1274.21 455.224 1274.79 456.484C1274.89 456.581 1274.94 456.766 1274.99 456.907C1275.85 458.166 1277.29 459.1 1279.21 459.382C1279.41 459.382 1279.54 459.471 1279.69 459.471H1280.17C1286.83 459.471 1287.99 451.675 1283.72 448.926C1283.62 448.837 1283.42 448.74 1283.29 448.651C1282.46 448.229 1281.6 448.044 1280.49 447.999L1280.5 447.992Z" fill="white"/>
<path d="M1103.22 554.976C1103.08 555.073 1102.99 555.258 1102.9 555.354C1102.04 556.518 1101.68 557.777 1101.69 559.178C1101.69 559.363 1101.74 559.548 1101.74 559.645C1101.99 562.261 1103.99 564.773 1107.75 564.773H1108.18C1108.31 564.773 1108.52 564.773 1108.72 564.684C1110.23 564.499 1111.44 563.839 1112.3 563.002C1112.4 562.913 1112.45 562.72 1112.55 562.535C1114.04 560.667 1114.16 558.059 1112.98 556.006C1112.92 555.821 1112.82 555.732 1112.72 555.636C1111.71 554.235 1110.1 553.213 1107.74 553.213C1107.31 553.213 1106.91 553.213 1106.53 553.309C1106.38 553.309 1106.2 553.309 1106.05 553.398C1104.86 553.679 1103.91 554.243 1103.22 554.984V554.976Z" fill="white"/>
<path d="M982.235 566.818C982.235 566.633 982.183 566.448 982.183 566.351C982.005 563.595 979.979 561.031 976.194 561.031H976.09C975.86 561.031 975.712 561.127 975.563 561.127C971.719 561.408 969.961 564.402 970.139 567.24C970.139 567.426 970.235 567.567 970.235 567.759C970.436 569.108 971.096 570.375 972.209 571.301C972.358 571.39 972.513 571.487 972.588 571.576C973.552 572.228 974.71 572.65 976.202 572.65C977.537 572.65 978.702 572.324 979.608 571.664C979.734 571.664 979.882 571.479 979.986 571.383C981.522 570.36 982.235 568.582 982.235 566.811V566.818Z" fill="white"/>
<path d="M1255.71 664.665C1253.71 664.665 1252.17 665.555 1251.22 666.674C1251.12 666.762 1250.97 666.859 1250.86 667.044C1249.4 669.193 1249.53 672.18 1251.23 674.136C1251.32 674.321 1251.41 674.417 1251.5 674.506C1252.52 675.536 1253.95 676.189 1255.92 676.189C1256.61 676.189 1257.22 676.092 1257.79 675.907C1258 675.907 1258.13 675.818 1258.28 675.818C1263.81 673.758 1263.07 664.895 1256.2 664.665H1255.92C1255.87 664.665 1255.82 664.665 1255.72 664.665H1255.71Z" fill="white"/>
<path d="M873.534 696.53C876.205 696.345 878.001 694.803 878.706 692.98C878.75 692.892 878.802 692.699 878.854 692.514C879.485 690.276 878.854 687.712 876.977 686.215C876.776 686.119 876.68 686.03 876.546 685.933C875.641 685.326 874.476 684.955 873.036 684.955C871.701 684.955 870.587 685.333 869.675 685.896C869.526 685.941 869.348 686.037 869.244 686.126C865.311 689.075 866.58 696.582 873.044 696.575C873.244 696.575 873.37 696.53 873.526 696.53H873.534Z" fill="white"/>
<path d="M800.631 584.307C800.631 584.121 800.631 584.032 800.579 583.84C800.423 582.721 799.896 581.743 799.132 580.95C799.035 580.764 798.887 580.668 798.805 580.579C797.796 579.69 796.408 579.179 794.612 579.179C786.509 579.179 786.516 590.665 794.62 590.657C795.933 590.657 797.017 590.331 797.929 589.909C798.033 589.813 798.234 589.724 798.382 589.627C800.096 588.419 800.853 586.263 800.631 584.307Z" fill="white"/>
</g>
<g opacity="0.2">
<path d="M1325.69 575.77C1325.99 575.77 1326.27 575.681 1326.59 575.681L1286.46 382.358C1286.14 382.358 1285.83 382.358 1285.5 382.447L1325.68 575.77H1325.69Z" fill="white"/>
<path d="M1294.4 367.655L1439.35 322.43V321.496L1294.02 366.863C1294.22 367.115 1294.3 367.374 1294.39 367.655H1294.4Z" fill="white"/>
<path d="M1298.87 149.055L1439.33 300.562V299.235L1299.47 148.425C1299.29 148.611 1299.04 148.863 1298.87 149.055Z" fill="white"/>
<path d="M1380.94 122.052L1439.32 276.374V273.736L1381.79 121.718C1381.54 121.815 1381.26 121.911 1380.93 122.052H1380.94Z" fill="white"/>
<path d="M1384.18 103.526L1439.14 24.2564V22.6705L1383.39 102.992C1383.65 103.155 1383.88 103.34 1384.18 103.526Z" fill="white"/>
<path d="M1333.71 576.555L1439.37 351.73V349.537L1332.88 576.281C1333.18 576.37 1333.46 576.466 1333.71 576.555Z" fill="white"/>
<path d="M1147.15 402.403H1146.67L1129.49 602.084H1130.45L1147.62 402.403H1147.15Z" fill="white"/>
<path d="M1217.14 470.623L1320.18 578.808C1320.36 578.527 1320.56 578.341 1320.81 578.06L1217.77 469.964C1217.54 470.149 1217.34 470.431 1217.14 470.616V470.623Z" fill="white"/>
<path d="M1203.96 472.313L1134.44 602.507C1134.69 602.596 1135.02 602.692 1135.25 602.781L1204.82 472.683C1204.54 472.594 1204.24 472.409 1203.96 472.313Z" fill="white"/>
<path d="M1075.71 389.694L1126.01 602.929C1126.29 602.84 1126.56 602.788 1126.87 602.603L1076.62 389.412C1076.34 389.509 1076.01 389.598 1075.71 389.694Z" fill="white"/>
<path d="M1090 923.341L1128.21 623.367C1127.88 623.367 1127.63 623.271 1127.3 623.182L1089.09 923.252C1089.41 923.341 1089.67 923.341 1090 923.341Z" fill="white"/>
<path d="M1138.44 621.033L1380.89 798.831C1381.12 798.549 1381.32 798.364 1381.54 798.083L1139.05 620.425C1138.87 620.655 1138.67 620.84 1138.44 621.033Z" fill="white"/>
<path d="M809.914 435.076C809.58 435.261 809.306 435.35 809.001 435.35L940.5 752.568C940.826 752.375 941.056 752.375 941.413 752.286L809.914 435.076Z" fill="white"/>
<path d="M1120.53 608.161L815.866 430.637C815.717 431.007 815.569 431.148 815.383 431.43L1120.25 608.998C1120.32 608.717 1120.43 608.442 1120.53 608.153V608.161Z" fill="white"/>
<path d="M1121.5 619.076L953.687 755.643C953.887 755.828 954.065 756.11 954.213 756.392L1122.02 619.832C1121.87 619.647 1121.64 619.365 1121.49 619.084L1121.5 619.076Z" fill="white"/>
<path d="M1335.49 595.037L1439.62 706.816V705.46L1336.17 594.474C1335.97 594.659 1335.72 594.844 1335.49 595.037Z" fill="white"/>
<path d="M1142.02 611.362C1142.07 611.688 1142.13 611.97 1142.13 612.251L1317.49 588.701C1317.41 588.464 1317.36 588.19 1317.31 587.864L1142.02 611.37V611.362Z" fill="white"/>
<path d="M1140.36 618.876L1439.65 746.01V745.031L1140.83 618.135C1140.63 618.372 1140.48 618.647 1140.35 618.884L1140.36 618.876Z" fill="white"/>
<path d="M1155.73 398.942C1155.6 399.105 1155.39 399.387 1155.13 399.55L1202.08 454.017C1202.36 453.831 1202.61 453.691 1202.89 453.505L1155.74 398.942H1155.73Z" fill="white"/>
<path d="M1084.87 379.749C1084.81 380.001 1084.81 380.283 1084.76 380.631L1136.15 389.205C1136.2 388.923 1136.25 388.671 1136.4 388.316L1084.86 379.749H1084.87Z" fill="white"/>
<path d="M1151.45 381.565L1181.37 283.947C1181.03 283.858 1180.74 283.806 1180.47 283.718L1150.59 381.291C1150.87 381.38 1151.22 381.476 1151.45 381.565Z" fill="white"/>
<path d="M1216.8 454.291L1276.49 380.149C1276.24 379.964 1276.01 379.801 1275.81 379.52L1216.1 453.779C1216.33 453.92 1216.62 454.105 1216.81 454.298L1216.8 454.291Z" fill="white"/>
<path d="M1207.93 451.823H1208.89L1186.3 283.947C1186.07 284.044 1185.75 284.088 1185.44 284.088L1207.93 451.823Z" fill="white"/>
<path d="M1290.84 151.671L1283.41 360.964C1283.61 360.919 1283.72 360.919 1283.84 360.919C1283.99 360.919 1284.19 360.919 1284.38 360.964L1291.72 151.634C1291.52 151.679 1291.37 151.679 1291.14 151.679H1290.84V151.671Z" fill="white"/>
<path d="M1192.21 280.976L1276 363.721C1276.22 363.535 1276.43 363.32 1276.7 363.187L1192.79 280.301C1192.54 280.539 1192.41 280.739 1192.21 280.976Z" fill="white"/>
<path d="M1062.32 379.764L817.313 422.374C817.357 422.752 817.409 423.026 817.409 423.308L1062.48 380.646C1062.37 380.387 1062.32 380.112 1062.32 379.764Z" fill="white"/>
<path d="M1081.66 371.116L1175.95 281.294C1175.67 281.109 1175.47 280.85 1175.32 280.665L1080.98 370.56C1081.18 370.723 1081.45 370.953 1081.66 371.116Z" fill="white"/>
<path d="M1173.06 276.626L816.445 419.995C816.571 420.277 816.719 420.514 816.771 420.788L1173.35 277.471C1173.27 277.263 1173.11 276.959 1173.06 276.633V276.626Z" fill="white"/>
<path d="M1036.93 -24.8303C1036.6 -24.9266 1036.38 -25.1119 1036.02 -25.2008L809.996 414.638C810.33 414.638 810.582 414.778 810.908 414.875L1036.93 -24.8303Z" fill="white"/>
<path d="M1163.22 66.9108L813.313 416.216C813.617 416.401 813.795 416.542 814.048 416.824L1163.85 67.6296C1163.65 67.348 1163.42 67.185 1163.22 66.9108Z" fill="white"/>
<path d="M1191.18 264.925L1284.65 149.952C1284.37 149.767 1284.17 149.648 1283.94 149.463L1190.42 264.391C1190.7 264.576 1190.95 264.739 1191.18 264.925H1191.18Z" fill="white"/>
<path d="M1183.89 262.628H1184.29L1173.24 70.6827C1172.97 70.6827 1172.68 70.7272 1172.34 70.7272L1183.33 262.628H1183.88H1183.89Z" fill="white"/>
<path d="M1301.64 136.85C1301.73 137.176 1301.87 137.384 1301.96 137.71L1366.33 116.294C1366.24 115.968 1366.09 115.753 1366.01 115.456L1301.64 136.85Z" fill="white"/>
<path d="M1282.45 133.76L1182.13 65.0063C1182.03 65.3101 1181.83 65.5621 1181.7 65.7992L1281.87 134.442C1282.02 134.257 1282.19 133.997 1282.45 133.76Z" fill="white"/>
<path d="M1373.42 101.569L1285.74 -94.1177C1285.44 -94.0436 1285.16 -93.9102 1284.86 -93.8139L1372.56 101.784C1372.84 101.71 1373.2 101.621 1373.42 101.577V101.569Z" fill="white"/>
<path d="M1365.95 108.58L1183.27 61.1825C1183.24 61.4641 1183.24 61.768 1183.19 62.0199L1365.75 109.417C1365.81 109.113 1365.9 108.861 1365.95 108.58Z" fill="white"/>
<path d="M1163.26 52.957C1163.46 52.6976 1163.64 52.4679 1163.84 52.253L1050.66 -28.7874C1050.41 -28.58 1050.28 -28.3206 1050.13 -28.0909L1163.26 52.957Z" fill="white"/>
<path d="M1274.89 -94.3475C1274.6 -94.4883 1274.36 -94.6513 1274.08 -94.7921L1177.27 50.1854C1177.5 50.3262 1177.85 50.467 1178.08 50.5856L1274.89 -94.3475Z" fill="white"/>
<path d="M815.391 431.43C815.569 431.148 815.725 431.007 815.873 430.637C817.261 428.532 817.788 425.827 817.409 423.308C817.409 423.026 817.357 422.752 817.313 422.374C817.157 421.863 816.979 421.351 816.778 420.788C816.727 420.514 816.578 420.277 816.452 419.995C815.866 418.736 815.087 417.713 814.048 416.824C813.795 416.549 813.617 416.401 813.313 416.216C812.6 415.66 811.821 415.193 810.916 414.867C810.589 414.778 810.337 414.63 810.003 414.63C808.897 414.26 807.658 414.074 806.27 414.074C791.147 414.082 791.162 435.646 806.285 435.631C807.243 435.631 808.155 435.535 809.009 435.35C809.313 435.35 809.588 435.261 809.922 435.075C812.267 434.468 814.137 433.112 815.398 431.43H815.391Z" fill="white"/>
<path d="M1135.25 602.781C1135.02 602.692 1134.69 602.596 1134.43 602.507C1133.32 602.277 1132.14 602.084 1130.85 602.092H1130.44C1130.16 602.092 1129.84 602.092 1129.48 602.092C1128.57 602.277 1127.71 602.373 1126.85 602.603C1126.56 602.788 1126.27 602.84 1125.99 602.929C1123.4 604.055 1121.58 605.915 1120.52 608.161C1120.42 608.442 1120.32 608.717 1120.24 609.006C1118.98 612.274 1119.46 616.194 1121.49 619.084C1121.64 619.365 1121.87 619.647 1122.02 619.832C1123.31 621.418 1125.06 622.537 1127.3 623.189C1127.63 623.278 1127.88 623.374 1128.21 623.374C1129.02 623.56 1129.9 623.649 1130.87 623.649C1134.07 623.649 1136.62 622.619 1138.44 621.033C1138.67 620.84 1138.87 620.655 1139.05 620.425C1139.57 620.003 1139.98 619.44 1140.36 618.884C1140.49 618.647 1140.64 618.372 1140.84 618.135C1141.8 616.364 1142.22 614.304 1142.13 612.259C1142.13 611.977 1142.07 611.696 1142.02 611.37C1141.59 607.731 1139.34 604.278 1135.25 602.788L1135.25 602.781Z" fill="white"/>
<path d="M1320.81 578.06C1320.56 578.334 1320.36 578.527 1320.18 578.808C1317.84 581.187 1316.88 584.648 1317.31 587.864C1317.36 588.19 1317.41 588.471 1317.49 588.701C1318.42 593.184 1322.11 597.053 1328.5 597.045C1331.37 597.045 1333.67 596.341 1335.49 595.037C1335.72 594.852 1335.97 594.666 1336.17 594.474C1341.67 589.709 1340.86 579.823 1333.71 576.555C1333.46 576.466 1333.18 576.37 1332.88 576.281C1331.59 575.762 1330.16 575.533 1328.49 575.533C1327.8 575.533 1327.17 575.629 1326.59 575.681C1326.26 575.681 1325.98 575.77 1325.68 575.77C1323.68 576.192 1322.04 577.037 1320.81 578.06H1320.81Z" fill="white"/>
<path d="M1202.89 453.505C1202.61 453.691 1202.36 453.831 1202.08 454.017C1196.08 458.596 1196.66 468.86 1203.96 472.305C1204.24 472.402 1204.54 472.587 1204.82 472.676C1206.11 473.098 1207.55 473.424 1209.28 473.424C1212.65 473.424 1215.27 472.298 1217.14 470.616C1217.34 470.431 1217.54 470.149 1217.77 469.964C1221.76 465.673 1221.45 458.203 1216.8 454.283C1216.62 454.098 1216.32 453.913 1216.09 453.765C1214.29 452.601 1212.05 451.808 1209.27 451.808H1208.89C1208.54 451.808 1208.26 451.808 1207.93 451.808C1205.92 452.045 1204.22 452.601 1202.88 453.49L1202.89 453.505Z" fill="white"/>
<path d="M1283.41 360.964C1280.64 361.06 1278.39 361.853 1276.7 363.187C1276.42 363.328 1276.21 363.535 1275.99 363.721C1271.52 367.833 1271.47 375.348 1275.8 379.52C1276.01 379.801 1276.23 379.964 1276.48 380.149C1278.3 381.572 1280.75 382.528 1283.86 382.521C1284.44 382.521 1284.97 382.447 1285.5 382.447C1285.83 382.358 1286.14 382.358 1286.46 382.358C1293.93 380.928 1296.58 373.369 1294.4 367.655C1294.31 367.374 1294.22 367.115 1294.02 366.863C1292.53 363.617 1289.22 361.149 1284.38 360.964C1284.2 360.919 1283.99 360.919 1283.84 360.919C1283.72 360.919 1283.61 360.919 1283.41 360.964Z" fill="white"/>
<path d="M1180.47 283.718C1180.74 283.806 1181.03 283.858 1181.37 283.947C1182.18 284.088 1182.99 284.155 1183.9 284.155C1184.43 284.155 1184.91 284.11 1185.45 284.088C1185.75 284.088 1186.08 284.036 1186.31 283.947C1188.81 283.547 1190.78 282.428 1192.21 280.983C1192.41 280.746 1192.54 280.546 1192.79 280.309C1196.42 275.825 1195.89 268.593 1191.19 264.932C1190.96 264.747 1190.71 264.584 1190.44 264.399C1188.8 263.324 1186.75 262.672 1184.3 262.628H1183.9C1183.67 262.628 1183.51 262.628 1183.34 262.628C1174.66 262.931 1171.25 270.572 1173.08 276.633C1173.13 276.959 1173.28 277.263 1173.36 277.471C1173.83 278.686 1174.47 279.738 1175.33 280.665C1175.48 280.85 1175.68 281.109 1175.96 281.294C1177.12 282.391 1178.64 283.228 1180.48 283.718H1180.47Z" fill="white"/>
<path d="M1151.45 381.565C1151.22 381.476 1150.87 381.38 1150.59 381.291C1149.58 381.031 1148.4 380.846 1147.13 380.846C1141.2 380.846 1137.59 384.233 1136.4 388.316C1136.26 388.671 1136.2 388.923 1136.16 389.205C1134.88 395.133 1138.39 402.129 1146.67 402.403H1147.16C1147.31 402.403 1147.51 402.403 1147.63 402.403C1150.87 402.307 1153.39 401.136 1155.13 399.55C1155.41 399.387 1155.61 399.105 1155.74 398.942C1160.45 393.688 1159.03 384.121 1151.45 381.565Z" fill="white"/>
<path d="M1084.77 380.631C1084.82 380.283 1084.82 380.001 1084.87 379.749C1085.02 376.555 1083.96 373.384 1081.66 371.116C1081.45 370.953 1081.18 370.723 1080.98 370.56C1079.11 369.138 1076.7 368.211 1073.6 368.211C1065.72 368.211 1061.99 374.117 1062.32 379.772C1062.32 380.12 1062.37 380.394 1062.48 380.653C1063.14 385.433 1066.85 389.776 1073.62 389.768C1074.32 389.768 1075.06 389.768 1075.71 389.701C1076.01 389.605 1076.34 389.516 1076.62 389.42C1081.52 388.368 1084.19 384.633 1084.77 380.639V380.631Z" fill="white"/>
<path d="M1291.12 130.144C1287.19 130.144 1284.26 131.589 1282.44 133.76C1282.19 133.997 1282.01 134.249 1281.86 134.442C1278.55 139.014 1279.27 145.921 1283.94 149.47C1284.17 149.656 1284.37 149.774 1284.65 149.959C1286.29 150.982 1288.36 151.642 1290.84 151.679H1291.14C1291.37 151.679 1291.52 151.679 1291.72 151.634C1294.73 151.538 1297.13 150.582 1298.87 149.063C1299.05 148.87 1299.3 148.618 1299.47 148.433C1302.16 145.61 1303.03 141.334 1301.96 137.717C1301.87 137.391 1301.73 137.184 1301.64 136.858C1300.19 133.101 1296.73 130.144 1291.12 130.144Z" fill="white"/>
<path d="M1365.95 108.58C1365.9 108.854 1365.81 109.113 1365.75 109.417C1365.32 111.425 1365.38 113.5 1366.01 115.464C1366.09 115.768 1366.24 115.975 1366.34 116.301C1367.83 119.895 1371.29 122.719 1376.8 122.711C1378.3 122.711 1379.73 122.496 1380.94 122.052C1381.27 121.911 1381.55 121.815 1381.81 121.718C1389.23 118.495 1390.05 108.202 1384.19 103.518C1383.89 103.333 1383.66 103.148 1383.41 102.985C1381.69 101.814 1379.49 101.117 1376.8 101.125C1375.56 101.125 1374.45 101.31 1373.43 101.569C1373.21 101.614 1372.86 101.71 1372.57 101.777C1369.12 102.992 1366.93 105.564 1365.96 108.572L1365.95 108.58Z" fill="white"/>
<path d="M1163.22 66.9108C1163.42 67.185 1163.65 67.348 1163.85 67.6296C1165.72 69.497 1168.45 70.7271 1172.06 70.7271H1172.34C1172.69 70.7271 1172.97 70.6827 1173.25 70.6827C1177.29 70.327 1180.07 68.4151 1181.71 65.7992C1181.83 65.5621 1182.04 65.3101 1182.14 65.0063C1182.67 64.1245 1182.94 63.0499 1183.19 62.0199C1183.24 61.7605 1183.24 61.4641 1183.27 61.1825C1183.72 57.0771 1181.92 52.7643 1178.08 50.6004C1177.85 50.4819 1177.5 50.3411 1177.27 50.2003C1175.78 49.6 1174.01 49.1776 1172.04 49.185C1168.48 49.185 1165.75 50.4003 1163.83 52.2678C1163.63 52.4753 1163.45 52.7124 1163.25 52.9718C1159.94 56.8696 1159.95 62.9832 1163.21 66.9256L1163.22 66.9108Z" fill="white"/>
</g>
</g>
</g>
<defs>
<clipPath id="clip0_1120_14359">
<rect width="1203.33" height="721.071" fill="white" transform="translate(0 -1.65695)"/>
</clipPath>
<clipPath id="clip1_1120_14359">
<rect width="1437" height="724" fill="white" transform="translate(2.99585 -4)"/>
</clipPath>
</defs>
</svg>
