<svg width="240" height="59" viewBox="0 0 240 59" fill="none" xmlns="http://www.w3.org/2000/svg">
<path d="M17.8884 56.9434C18.8422 56.9434 19.5145 56.5528 20.0778 55.9623L20.7228 56.5437C20.0233 57.325 19.1784 57.8428 17.8702 57.8428C15.9624 57.8428 14.4089 56.3802 14.4089 54.218C14.4089 52.2103 15.8171 50.5933 17.7339 50.5933C19.7871 50.5933 20.9681 52.2285 20.9681 54.2725C20.9681 54.3634 20.9681 54.4724 20.959 54.6359H15.4628C15.6081 56.0986 16.6801 56.9434 17.9065 56.9434M19.9324 53.8092C19.8143 52.5464 19.0875 51.4744 17.7158 51.4744C16.5257 51.4744 15.6081 52.4647 15.4628 53.8092H19.9324Z" fill="#3A7A85"/>
<path d="M17.8884 56.9434C18.8422 56.9434 19.5145 56.5528 20.0778 55.9623L20.7228 56.5437C20.0233 57.325 19.1784 57.8428 17.8702 57.8428C15.9624 57.8428 14.4089 56.3802 14.4089 54.218C14.4089 52.2103 15.8171 50.5933 17.7339 50.5933C19.7871 50.5933 20.9681 52.2285 20.9681 54.2725C20.9681 54.3634 20.9681 54.4724 20.959 54.6359H15.4628C15.6081 56.0986 16.6801 56.9434 17.9065 56.9434M19.9324 53.8092C19.8143 52.5464 19.0875 51.4744 17.7158 51.4744C16.5257 51.4744 15.6081 52.4647 15.4628 53.8092H19.9324Z" stroke="#3A7A85" stroke-width="0.5"/>
<path d="M22.3308 55.6718V55.6445C22.3308 54.1546 23.5391 53.3824 25.2924 53.3824C26.1827 53.3824 26.7914 53.5005 27.4091 53.6822V53.4642C27.4091 52.2287 26.6551 51.5837 25.356 51.5837C24.5384 51.5837 23.8934 51.7835 23.2484 52.0833L22.9395 51.2384C23.7026 50.8932 24.4385 50.6479 25.465 50.6479C26.4916 50.6479 27.2093 50.9205 27.7089 51.4111C28.1904 51.8925 28.4357 52.5648 28.4357 53.446V57.6886H27.4182V56.6529C26.9367 57.2707 26.1464 57.8339 24.9199 57.8339C23.6208 57.8339 22.3308 57.0981 22.3308 55.6718ZM27.4273 55.1358V54.4907C26.9186 54.3454 26.2463 54.2 25.4014 54.2C24.1114 54.2 23.3755 54.7633 23.3755 55.5991V55.6263C23.3755 56.4985 24.1841 57.0072 25.1198 57.0072C26.3917 57.0072 27.4273 56.2441 27.4273 55.1448" fill="#3A7A85"/>
<path d="M22.3308 55.6718V55.6445C22.3308 54.1546 23.5391 53.3824 25.2924 53.3824C26.1827 53.3824 26.7914 53.5005 27.4091 53.6822V53.4642C27.4091 52.2287 26.6551 51.5837 25.356 51.5837C24.5384 51.5837 23.8934 51.7835 23.2484 52.0833L22.9395 51.2384C23.7026 50.8932 24.4385 50.6479 25.465 50.6479C26.4916 50.6479 27.2093 50.9205 27.7089 51.4111C28.1904 51.8925 28.4357 52.5648 28.4357 53.446V57.6886H27.4182V56.6529C26.9367 57.2707 26.1464 57.8339 24.9199 57.8339C23.6208 57.8339 22.3308 57.0981 22.3308 55.6718M27.4273 55.1358V54.4907C26.9186 54.3454 26.2463 54.2 25.4014 54.2C24.1114 54.2 23.3755 54.7633 23.3755 55.5991V55.6263C23.3755 56.4985 24.1841 57.0072 25.1198 57.0072C26.3917 57.0072 27.4273 56.2441 27.4273 55.1448" stroke="#3A7A85" stroke-width="0.5"/>
<path d="M30.6978 50.7474H31.7335V51.9557C32.1877 51.2017 32.9145 50.6021 34.1046 50.6021C35.7852 50.6021 36.7573 51.7285 36.7573 53.382V57.6881H35.7216V53.6363C35.7216 52.3463 35.0221 51.5469 33.8048 51.5469C32.5874 51.5469 31.7244 52.419 31.7244 53.7181V57.6881H30.6887V50.7565L30.6978 50.7474Z" fill="#3A7A85" stroke="#3A7A85" stroke-width="0.5"/>
<path d="M42.1172 48.2947H46.1508C47.3046 48.2947 48.2312 48.64 48.8217 49.2305C49.276 49.6847 49.5485 50.3479 49.5485 51.0837V51.111C49.5485 52.6644 48.4765 53.582 46.9957 53.8455L49.8755 57.6792H48.5764L45.851 54.0272H43.1711V57.6792H42.1082V48.2856L42.1172 48.2947ZM46.06 53.0823C47.4681 53.0823 48.4765 52.3556 48.4765 51.1473V51.1201C48.4765 49.9663 47.5953 49.2668 46.0782 49.2668H43.1801V53.0733H46.06V53.0823Z" fill="#3A7A85" stroke="#3A7A85" stroke-width="0.5"/>
<path d="M54.645 56.9434C55.5988 56.9434 56.2711 56.5528 56.8344 55.9623L57.4794 56.5437C56.7798 57.325 55.935 57.8428 54.6268 57.8428C52.719 57.8428 51.1655 56.3802 51.1655 54.218C51.1655 52.2103 52.5737 50.5933 54.4905 50.5933C56.5437 50.5933 57.7247 52.2285 57.7247 54.2725C57.7247 54.3634 57.7247 54.4724 57.7065 54.6359H52.2103C52.3556 56.0986 53.4276 56.9434 54.654 56.9434M56.6799 53.8092C56.5618 52.5464 55.835 51.4744 54.4633 51.4744C53.2732 51.4744 52.3556 52.4647 52.2103 53.8092H56.6799Z" fill="#3A7A85"/>
<path d="M54.645 56.9434C55.5988 56.9434 56.2711 56.5528 56.8344 55.9623L57.4794 56.5437C56.7798 57.325 55.935 57.8428 54.6268 57.8428C52.719 57.8428 51.1655 56.3802 51.1655 54.218C51.1655 52.2103 52.5737 50.5933 54.4905 50.5933C56.5437 50.5933 57.7247 52.2285 57.7247 54.2725C57.7247 54.3634 57.7247 54.4724 57.7065 54.6359H52.2103C52.3556 56.0986 53.4276 56.9434 54.654 56.9434M56.6799 53.8092C56.5618 52.5464 55.835 51.4744 54.4633 51.4744C53.2732 51.4744 52.3556 52.4647 52.2103 53.8092H56.6799Z" stroke="#3A7A85" stroke-width="0.5"/>
<path d="M59.0328 56.7979L59.5597 56.062C60.3137 56.6253 61.1404 56.9432 61.958 56.9432C62.7757 56.9432 63.3934 56.5163 63.3934 55.844V55.8168C63.3934 55.1172 62.5758 54.8538 61.6673 54.5994C60.5772 54.2905 59.3689 53.9181 59.3689 52.6371V52.6098C59.3689 51.4198 60.3591 50.6294 61.7309 50.6294C62.5758 50.6294 63.5115 50.9292 64.2292 51.3925L63.7568 52.1738C63.1118 51.7559 62.3759 51.5015 61.7037 51.5015C60.886 51.5015 60.3591 51.9285 60.3591 52.5099V52.5372C60.3591 53.1913 61.2131 53.4456 62.1397 53.7273C63.2117 54.0452 64.3655 54.4631 64.3655 55.7077V55.735C64.3655 57.0522 63.2753 57.8154 61.8944 57.8154C60.9042 57.8154 59.805 57.4247 59.0237 56.7979" fill="#3A7A85"/>
<path d="M59.0328 56.7979L59.5597 56.062C60.3137 56.6253 61.1404 56.9432 61.958 56.9432C62.7757 56.9432 63.3934 56.5163 63.3934 55.844V55.8168C63.3934 55.1172 62.5758 54.8538 61.6673 54.5994C60.5772 54.2905 59.3689 53.9181 59.3689 52.6371V52.6098C59.3689 51.4198 60.3591 50.6294 61.7309 50.6294C62.5758 50.6294 63.5115 50.9292 64.2292 51.3925L63.7568 52.1738C63.1118 51.7559 62.3759 51.5015 61.7037 51.5015C60.886 51.5015 60.3591 51.9285 60.3591 52.5099V52.5372C60.3591 53.1913 61.2131 53.4456 62.1397 53.7273C63.2117 54.0452 64.3655 54.4631 64.3655 55.7077V55.735C64.3655 57.0522 63.2753 57.8154 61.8944 57.8154C60.9042 57.8154 59.805 57.4247 59.0237 56.7979" stroke="#3A7A85" stroke-width="0.5"/>
<path d="M65.9463 54.2453V54.218C65.9463 52.2557 67.4725 50.5933 69.5711 50.5933C71.6696 50.5933 73.1777 52.2285 73.1777 54.1908V54.218C73.1777 56.1712 71.6333 57.8428 69.5438 57.8428C67.4543 57.8428 65.9463 56.2076 65.9463 54.2453ZM72.1148 54.2453V54.218C72.1148 52.7281 70.9974 51.5108 69.5347 51.5108C68.0721 51.5108 67.0001 52.7282 67.0001 54.1908V54.218C67.0001 55.7079 68.0994 56.9162 69.562 56.9162C71.0246 56.9162 72.1148 55.7079 72.1148 54.2453Z" fill="#3A7A85" stroke="#3A7A85" stroke-width="0.5"/>
<path d="M75.0128 55.0537V50.7476H76.0485V54.7993C76.0485 56.0893 76.748 56.8888 77.9653 56.8888C79.1827 56.8888 80.0457 56.0167 80.0457 54.7176V50.7476H81.0632V57.6792H80.0457V56.4709C79.5733 57.2249 78.8647 57.8245 77.6746 57.8245C75.994 57.8245 75.0219 56.698 75.0219 55.0446" fill="#3A7A85"/>
<path d="M75.0128 55.0537V50.7476H76.0485V54.7993C76.0485 56.0893 76.748 56.8888 77.9653 56.8888C79.1827 56.8888 80.0457 56.0167 80.0457 54.7176V50.7476H81.0632V57.6792H80.0457V56.4709C79.5733 57.2249 78.8647 57.8245 77.6746 57.8245C75.994 57.8245 75.0219 56.698 75.0219 55.0446" stroke="#3A7A85" stroke-width="0.5"/>
<path d="M83.4706 50.7476H84.5062V52.5554C85.015 51.4017 86.0234 50.575 87.3406 50.6204V51.7378H87.2589C85.7417 51.7378 84.5062 52.828 84.5062 54.9175V57.6792H83.4706V50.7476Z" fill="#3A7A85" stroke="#3A7A85" stroke-width="0.5"/>
<path d="M88.2582 54.2453V54.218C88.2582 52.2557 89.7845 50.5933 91.8103 50.5933C93.1276 50.5933 93.9452 51.1474 94.5903 51.8288L93.9089 52.5555C93.3638 51.9741 92.7461 51.5108 91.8013 51.5108C90.3931 51.5108 89.3211 52.7009 89.3211 54.1908V54.218C89.3211 55.717 90.4204 56.9162 91.8649 56.9162C92.7461 56.9162 93.4365 56.471 93.9816 55.8805L94.6357 56.4983C93.9361 57.2796 93.1094 57.8428 91.8013 57.8428C89.7754 57.8428 88.2491 56.1894 88.2491 54.2453" fill="#3A7A85"/>
<path d="M88.2582 54.2453V54.218C88.2582 52.2557 89.7845 50.5933 91.8103 50.5933C93.1276 50.5933 93.9452 51.1474 94.5903 51.8288L93.9089 52.5555C93.3638 51.9741 92.7461 51.5108 91.8013 51.5108C90.3931 51.5108 89.3211 52.7009 89.3211 54.1908V54.218C89.3211 55.717 90.4204 56.9162 91.8649 56.9162C92.7461 56.9162 93.4365 56.471 93.9816 55.8805L94.6357 56.4983C93.9361 57.2796 93.1094 57.8428 91.8013 57.8428C89.7754 57.8428 88.2491 56.1894 88.2491 54.2453" stroke="#3A7A85" stroke-width="0.5"/>
<path d="M99.2869 56.9434C100.241 56.9434 100.913 56.5528 101.476 55.9623L102.121 56.5437C101.422 57.325 100.577 57.8428 99.2688 57.8428C97.361 57.8428 95.8075 56.3802 95.8075 54.218C95.8075 52.2103 97.2156 50.5933 99.1325 50.5933C101.186 50.5933 102.367 52.2285 102.367 54.2725C102.367 54.3634 102.367 54.4724 102.358 54.6359H96.8613C97.0067 56.0986 98.0787 56.9434 99.3051 56.9434M101.331 53.8092C101.213 52.5464 100.486 51.4744 99.1143 51.4744C97.9242 51.4744 97.0067 52.4647 96.8613 53.8092H101.331Z" fill="#3A7A85"/>
<path d="M99.2869 56.9434C100.241 56.9434 100.913 56.5528 101.476 55.9623L102.121 56.5437C101.422 57.325 100.577 57.8428 99.2688 57.8428C97.361 57.8428 95.8075 56.3802 95.8075 54.218C95.8075 52.2103 97.2156 50.5933 99.1325 50.5933C101.186 50.5933 102.367 52.2285 102.367 54.2725C102.367 54.3634 102.367 54.4724 102.358 54.6359H96.8613C97.0067 56.0986 98.0787 56.9434 99.3051 56.9434M101.331 53.8092C101.213 52.5464 100.486 51.4744 99.1143 51.4744C97.9242 51.4744 97.0067 52.4647 96.8613 53.8092H101.331Z" stroke="#3A7A85" stroke-width="0.5"/>
<path d="M109.553 48.2949H108.49V57.6794H109.553V48.2949Z" fill="#3A7A85" stroke="#3A7A85" stroke-width="0.5"/>
<path d="M112.205 50.7474H113.241V51.9557C113.695 51.2017 114.422 50.6021 115.612 50.6021C117.284 50.6021 118.265 51.7285 118.265 53.382V57.6881H117.229V53.6363C117.229 52.3463 116.53 51.5469 115.312 51.5469C114.095 51.5469 113.232 52.419 113.232 53.7181V57.6881H112.196V50.7565L112.205 50.7474Z" fill="#3A7A85" stroke="#3A7A85" stroke-width="0.5"/>
<path d="M120.681 50.7474H121.717V51.9557C122.171 51.2017 122.898 50.6021 124.088 50.6021C125.769 50.6021 126.741 51.7285 126.741 53.382V57.6881H125.705V53.6363C125.705 52.3463 125.006 51.5469 123.788 51.5469C122.571 51.5469 121.708 52.419 121.708 53.7181V57.6881H120.672V50.7565L120.681 50.7474Z" fill="#3A7A85" stroke="#3A7A85" stroke-width="0.5"/>
<path d="M128.603 54.2453V54.218C128.603 52.2557 130.129 50.5933 132.228 50.5933C134.327 50.5933 135.835 52.2285 135.835 54.1908V54.218C135.835 56.1712 134.29 57.8428 132.201 57.8428C130.111 57.8428 128.603 56.2076 128.603 54.2453ZM134.772 54.2453V54.218C134.772 52.7281 133.654 51.5108 132.192 51.5108C130.729 51.5108 129.657 52.7282 129.657 54.1908V54.218C129.657 55.7079 130.756 56.9162 132.219 56.9162C133.682 56.9162 134.772 55.7079 134.772 54.2453Z" fill="#3A7A85" stroke="#3A7A85" stroke-width="0.5"/>
<path d="M136.689 50.7476H137.824L140.159 56.4982L142.512 50.7476H143.62L140.604 57.7337H139.696L136.689 50.7476Z" fill="#3A7A85" stroke="#3A7A85" stroke-width="0.5"/>
<path d="M144.474 55.6718V55.6445C144.474 54.1546 145.682 53.3824 147.436 53.3824C148.317 53.3824 148.935 53.5005 149.552 53.6822V53.4642C149.552 52.2287 148.798 51.5837 147.499 51.5837C146.682 51.5837 146.037 51.7835 145.392 52.0833L145.083 51.2384C145.846 50.8932 146.582 50.6479 147.608 50.6479C148.635 50.6479 149.353 50.9205 149.852 51.4111C150.334 51.8925 150.579 52.5648 150.579 53.446V57.6886H149.562V56.6529C149.08 57.2707 148.29 57.8339 147.063 57.8339C145.764 57.8339 144.474 57.0981 144.474 55.6718ZM149.571 55.1358V54.4907C149.062 54.3454 148.39 54.2 147.545 54.2C146.255 54.2 145.519 54.7633 145.519 55.5991V55.6263C145.519 56.4985 146.318 57.0072 147.263 57.0072C148.535 57.0072 149.571 56.2441 149.571 55.1448" fill="#3A7A85"/>
<path d="M144.474 55.6718V55.6445C144.474 54.1546 145.682 53.3824 147.436 53.3824C148.317 53.3824 148.935 53.5005 149.552 53.6822V53.4642C149.552 52.2287 148.798 51.5837 147.499 51.5837C146.682 51.5837 146.037 51.7835 145.392 52.0833L145.083 51.2384C145.846 50.8932 146.582 50.6479 147.608 50.6479C148.635 50.6479 149.353 50.9205 149.852 51.4111C150.334 51.8925 150.579 52.5648 150.579 53.446V57.6886H149.562V56.6529C149.08 57.2707 148.29 57.8339 147.063 57.8339C145.764 57.8339 144.474 57.0981 144.474 55.6718M149.571 55.1358V54.4907C149.062 54.3454 148.39 54.2 147.545 54.2C146.255 54.2 145.519 54.7633 145.519 55.5991V55.6263C145.519 56.4985 146.318 57.0072 147.263 57.0072C148.535 57.0072 149.571 56.2441 149.571 55.1448" stroke="#3A7A85" stroke-width="0.5"/>
<path d="M153.141 55.8442V51.6561H152.178V50.7477H153.141V48.6582H154.177V50.7477H156.375V51.6561H154.177V55.7079C154.177 56.5528 154.649 56.8617 155.339 56.8617C155.685 56.8617 155.984 56.798 156.348 56.6164V57.4976C155.984 57.6883 155.594 57.7974 155.103 57.7974C153.986 57.7974 153.141 57.2432 153.141 55.8351" fill="#3A7A85"/>
<path d="M153.141 55.8442V51.6561H152.178V50.7477H153.141V48.6582H154.177V50.7477H156.375V51.6561H154.177V55.7079C154.177 56.5528 154.649 56.8617 155.339 56.8617C155.685 56.8617 155.984 56.798 156.348 56.6164V57.4976C155.984 57.6883 155.594 57.7974 155.103 57.7974C153.986 57.7974 153.141 57.2432 153.141 55.8351" stroke="#3A7A85" stroke-width="0.5"/>
<path d="M158.301 48.0947H159.482V49.2394H158.301V48.0947ZM158.365 50.7474H159.4V57.679H158.365V50.7474Z" fill="#3A7A85" stroke="#3A7A85" stroke-width="0.5"/>
<path d="M161.453 54.2453V54.218C161.453 52.2557 162.98 50.5933 165.078 50.5933C167.177 50.5933 168.685 52.2285 168.685 54.1908V54.218C168.685 56.1712 167.14 57.8428 165.051 57.8428C162.961 57.8428 161.453 56.2076 161.453 54.2453ZM167.622 54.2453V54.218C167.622 52.7281 166.504 51.5108 165.042 51.5108C163.579 51.5108 162.507 52.7282 162.507 54.1908V54.218C162.507 55.7079 163.606 56.9162 165.069 56.9162C166.532 56.9162 167.622 55.7079 167.622 54.2453Z" fill="#3A7A85" stroke="#3A7A85" stroke-width="0.5"/>
<path d="M170.629 50.7474H171.664V51.9557C172.119 51.2017 172.845 50.6021 174.036 50.6021C175.707 50.6021 176.688 51.7285 176.688 53.382V57.6881H175.653V53.6363C175.653 52.3463 174.953 51.5469 173.736 51.5469C172.518 51.5469 171.655 52.419 171.655 53.7181V57.6881H170.62V50.7565L170.629 50.7474Z" fill="#3A7A85" stroke="#3A7A85" stroke-width="0.5"/>
<path d="M183.257 48.2949H184.247L190.161 55.8171V48.2949H191.197V57.6794H190.352L184.292 49.9847V57.6794H183.257V48.2949Z" fill="#3A7A85" stroke="#3A7A85" stroke-width="0.5"/>
<path d="M196.82 56.9434C197.774 56.9434 198.446 56.5528 199.009 55.9623L199.654 56.5437C198.955 57.325 198.11 57.8428 196.802 57.8428C194.894 57.8428 193.34 56.3802 193.34 54.218C193.34 52.2103 194.749 50.5933 196.665 50.5933C198.719 50.5933 199.9 52.2285 199.9 54.2725C199.9 54.3634 199.9 54.4724 199.881 54.6359H194.385C194.531 56.0986 195.603 56.9434 196.829 56.9434M198.855 53.8092C198.737 52.5464 198.01 51.4744 196.638 51.4744C195.448 51.4744 194.531 52.4647 194.385 53.8092H198.855Z" fill="#3A7A85"/>
<path d="M196.82 56.9434C197.774 56.9434 198.446 56.5528 199.009 55.9623L199.654 56.5437C198.955 57.325 198.11 57.8428 196.802 57.8428C194.894 57.8428 193.34 56.3802 193.34 54.218C193.34 52.2103 194.749 50.5933 196.665 50.5933C198.719 50.5933 199.9 52.2285 199.9 54.2725C199.9 54.3634 199.9 54.4724 199.881 54.6359H194.385C194.531 56.0986 195.603 56.9434 196.829 56.9434M198.855 53.8092C198.737 52.5464 198.01 51.4744 196.638 51.4744C195.448 51.4744 194.531 52.4647 194.385 53.8092H198.855Z" stroke="#3A7A85" stroke-width="0.5"/>
<path d="M202.144 55.8442V51.6561H201.181V50.7477H202.144V48.6582H203.179V50.7477H205.378V51.6561H203.179V55.7079C203.179 56.5528 203.652 56.8617 204.342 56.8617C204.687 56.8617 204.987 56.798 205.35 56.6164V57.4976C204.987 57.6883 204.596 57.7974 204.106 57.7974C202.988 57.7974 202.144 57.2432 202.144 55.8351" fill="#3A7A85"/>
<path d="M202.144 55.8442V51.6561H201.181V50.7477H202.144V48.6582H203.179V50.7477H205.378V51.6561H203.179V55.7079C203.179 56.5528 203.652 56.8617 204.342 56.8617C204.687 56.8617 204.987 56.798 205.35 56.6164V57.4976C204.987 57.6883 204.596 57.7974 204.106 57.7974C202.988 57.7974 202.144 57.2432 202.144 55.8351" stroke="#3A7A85" stroke-width="0.5"/>
<path d="M206.695 50.7475H207.794L209.62 56.3164L211.483 50.7202H212.346L214.217 56.3164L216.043 50.7475H217.115L214.671 57.7336H213.781L211.91 52.2646L210.038 57.7336H209.121L206.695 50.7475Z" fill="#3A7A85" stroke="#3A7A85" stroke-width="0.5"/>
<path d="M218.151 54.2453V54.218C218.151 52.2557 219.677 50.5933 221.776 50.5933C223.874 50.5933 225.382 52.2285 225.382 54.1908V54.218C225.382 56.1712 223.838 57.8428 221.748 57.8428C219.659 57.8428 218.151 56.2076 218.151 54.2453ZM224.319 54.2453V54.218C224.319 52.7281 223.202 51.5108 221.739 51.5108C220.277 51.5108 219.205 52.7282 219.205 54.1908V54.218C219.205 55.7079 220.304 56.9162 221.766 56.9162C223.229 56.9162 224.319 55.7079 224.319 54.2453Z" fill="#3A7A85"/>
<path d="M218.151 54.2453V54.218C218.151 52.2557 219.677 50.5933 221.776 50.5933C223.874 50.5933 225.382 52.2285 225.382 54.1908V54.218C225.382 56.1712 223.838 57.8428 221.748 57.8428C219.659 57.8428 218.151 56.2076 218.151 54.2453M224.319 54.2453V54.218C224.319 52.7281 223.202 51.5108 221.739 51.5108C220.277 51.5108 219.205 52.7282 219.205 54.1908V54.218C219.205 55.7079 220.304 56.9162 221.766 56.9162C223.229 56.9162 224.319 55.7079 224.319 54.2453Z" stroke="#3A7A85" stroke-width="0.5"/>
<path d="M227.326 50.7476H228.362V52.5554C228.871 51.4017 229.879 50.575 231.196 50.6204V51.7378H231.115C229.597 51.7378 228.362 52.828 228.362 54.9175V57.6792H227.326V50.7476Z" fill="#3A7A85" stroke="#3A7A85" stroke-width="0.5"/>
<path d="M232.841 47.8857H233.876V54.6447L237.619 50.7474H238.909L235.993 53.7272L239 57.679H237.764L235.284 54.4449L233.876 55.8712V57.679H232.841V47.8857Z" fill="#3A7A85" stroke="#3A7A85" stroke-width="0.5"/>
<path d="M1 53.0098V52.9826C1 50.3298 2.98045 48.1313 5.75128 48.1313C7.45919 48.1313 8.47668 48.7309 9.4124 49.6212L8.68563 50.4025C7.89526 49.6485 7.00496 49.1125 5.73311 49.1125C3.65272 49.1125 2.09924 50.8022 2.09924 52.9644V52.9916C2.09924 55.1629 3.67089 56.8708 5.73311 56.8708C7.02313 56.8708 7.86801 56.3711 8.76739 55.5172L9.46691 56.1985C8.48576 57.1888 7.41378 57.8519 5.71494 57.8519C3.00771 57.8519 1.00909 55.717 1.00909 53.0189" fill="#3A7A85"/>
<path d="M1 53.0098V52.9826C1 50.3298 2.98045 48.1313 5.75128 48.1313C7.45919 48.1313 8.47668 48.7309 9.4124 49.6212L8.68563 50.4025C7.89526 49.6485 7.00496 49.1125 5.73311 49.1125C3.65272 49.1125 2.09924 50.8022 2.09924 52.9644V52.9916C2.09924 55.1629 3.67089 56.8708 5.73311 56.8708C7.02313 56.8708 7.86801 56.3711 8.76739 55.5172L9.46691 56.1985C8.48576 57.1888 7.41378 57.8519 5.71494 57.8519C3.00771 57.8519 1.00909 55.717 1.00909 53.0189" stroke="#3A7A85" stroke-width="0.5"/>
<path d="M12.3468 47.8857H11.3112V57.679H12.3468V47.8857Z" fill="#3A7A85" stroke="#3A7A85" stroke-width="0.5"/>
<path d="M1.46338 20.6138V20.5048C1.46338 9.89389 9.22168 1 19.9961 1C27.1094 1 30.825 3.64364 34.3226 6.97771L33.5141 7.78625C30.498 4.87915 26.6733 2.07198 19.9416 2.07198C9.9212 2.07198 2.64438 10.5843 2.64438 20.4412V20.5502C2.64438 30.5161 10.0211 38.9194 19.9416 38.9194C26.0828 38.9194 30.6615 36.0123 33.6776 32.7782L34.5406 33.5867C31.252 37.0389 26.5189 40.0005 19.8871 40.0005C9.27619 40.0005 1.46338 31.2701 1.46338 20.6047" fill="#1F1C1D"/>
<path d="M1.46338 20.6138V20.5048C1.46338 9.89389 9.22168 1 19.9961 1C27.1094 1 30.825 3.64364 34.3226 6.97771L33.5141 7.78625C30.498 4.87915 26.6733 2.07198 19.9416 2.07198C9.9212 2.07198 2.64438 10.5843 2.64438 20.4412V20.5502C2.64438 30.5161 10.0211 38.9194 19.9416 38.9194C26.0828 38.9194 30.6615 36.0123 33.6776 32.7782L34.5406 33.5867C31.252 37.0389 26.5189 40.0005 19.8871 40.0005C9.27619 40.0005 1.46338 31.2701 1.46338 20.6047" stroke="#1F1C1D"/>
<path d="M42.2354 1.65411H57.6429C62.5487 1.65411 66.1553 2.88962 68.4719 5.20621C70.198 6.93229 71.1609 9.3034 71.1609 12.2105V12.3195C71.1609 18.6788 66.1008 22.4489 58.8239 22.8759L71.379 39.3555H69.9254L57.4249 22.9213H43.4164V39.3555H42.2354V1.64502V1.65411ZM57.0524 21.8584C65.7828 21.8584 69.9799 17.7067 69.9799 12.374V12.265C69.9799 6.28728 65.3467 2.73519 57.5339 2.73519H43.4164V21.8584H57.0434H57.0524Z" fill="#1F1C1D" stroke="#1F1C1D"/>
<path d="M94.3812 1.6543H95.4078L124.061 37.4206V1.6543H125.196V39.3647H124.17L95.5168 3.58932V39.3647H94.3812V1.6543Z" fill="#1F1C1D" stroke="#1F1C1D"/>
<path d="M82.7983 1.6543H81.6173V22.9306H82.7983V1.6543Z" fill="#1F1C1D" stroke="#1F1C1D"/>
<path d="M82.7983 26.0103H81.6173V39.3647H82.7983V26.0103Z" fill="#3A7A85" stroke="#3A7A85" stroke-width="0.5"/>
</svg>
