<svg width="58" height="50" viewBox="0 0 58 50" fill="none" xmlns="http://www.w3.org/2000/svg">
<path d="M19.6428 13.3929H37.5" stroke="#4F8F9B" stroke-width="1.78571" stroke-miterlimit="10"/>
<path d="M49.1072 25.8929L46.4286 28.5715V30.3572L42.8572 33.9286" stroke="#4F8F9B" stroke-width="1.78571" stroke-miterlimit="10" stroke-linecap="round"/>
<path d="M27.6786 33.9285L37.5 43.75C37.5 43.75 38.3929 44.6428 39.2857 44.6428C40.7679 44.6428 41.9643 43.4464 41.9643 41.9643C41.9643 41.0714 41.0714 40.1785 41.0714 40.1785L31.25 30.3571" stroke="#4F8F9B" stroke-width="1.78571" stroke-miterlimit="10" stroke-linecap="round"/>
<path d="M36.6072 42.8571C36.6072 42.8571 37.5 43.75 37.5 44.6429C37.5 46.125 36.3036 47.3214 34.8215 47.3214C33.9286 47.3214 33.0357 46.4286 33.0357 46.4286L24.1072 37.5" stroke="#4F8F9B" stroke-width="1.78571" stroke-miterlimit="10" stroke-linecap="round"/>
<path d="M31.2501 44.6429C31.2501 44.6429 32.1429 45.5357 32.1429 46.4286C32.1429 47.9107 30.9465 49.1072 29.4643 49.1072C28.5715 49.1072 27.6786 48.2143 27.6786 48.2143L11.6072 32.1429V29.4643L8.03577 25.8929" stroke="#4F8F9B" stroke-width="1.78571" stroke-miterlimit="10" stroke-linecap="round"/>
<path d="M16.0715 37.5C16.0715 37.5 15.1786 38.3929 14.2857 38.3929C12.8036 38.3929 11.6072 37.1964 11.6072 35.7143C11.6072 34.8214 12.5 33.9286 12.5 33.9286" stroke="#4F8F9B" stroke-width="1.78571" stroke-miterlimit="10" stroke-linecap="round"/>
<path d="M19.6429 41.0714C19.6429 41.0714 18.75 41.9643 17.8572 41.9643C16.375 41.9643 15.1786 40.7679 15.1786 39.2857C15.1786 38.3929 16.0714 37.5 16.0714 37.5" stroke="#4F8F9B" stroke-width="1.78571" stroke-miterlimit="10" stroke-linecap="round"/>
<path d="M23.2143 44.6428C23.2143 44.6428 22.3214 45.5357 21.4286 45.5357C19.9464 45.5357 18.75 44.3393 18.75 42.8571C18.75 41.9643 19.6429 41.0714 19.6429 41.0714" stroke="#4F8F9B" stroke-width="1.78571" stroke-miterlimit="10" stroke-linecap="round"/>
<path d="M26.7857 48.2143C26.7857 48.2143 25.8928 49.1072 25 49.1072C23.5178 49.1072 22.3214 47.9107 22.3214 46.4286C22.3214 45.5357 23.2143 44.6429 23.2143 44.6429" stroke="#4F8F9B" stroke-width="1.78571" stroke-miterlimit="10" stroke-linecap="round"/>
<path d="M25.8928 13.3929L20.5357 18.75C20.5357 18.75 19.6428 19.6429 19.6428 20.5357C19.6428 22.0179 20.8393 23.2143 22.3214 23.2143C23.2143 23.2143 24.1071 22.3214 24.1071 22.3214L28.5714 17.8571H31.25V23.2143L42.8571 34.8214C42.8571 34.8214 43.75 35.7143 43.75 36.6071C43.75 38.0893 42.5535 39.2857 41.0714 39.2857C40.1785 39.2857 39.2857 38.3929 39.2857 38.3929" stroke="#4F8F9B" stroke-width="1.78571" stroke-miterlimit="10" stroke-linecap="round"/>
<path d="M38.3929 22.3214C38.3929 23.8036 37.1965 25 35.7143 25H33.0358" stroke="#4F8F9B" stroke-width="1.78571" stroke-miterlimit="10"/>
<path d="M56.2499 21.4286L51.7857 25.8929H49.9999L35.7142 11.6071V9.82142L44.6428 0.892853" stroke="#4F8F9B" stroke-width="1.78571" stroke-linecap="round" stroke-linejoin="round"/>
<path d="M0.892822 21.4286L5.35711 25.8929H7.14282L21.4285 11.6071V9.82142L12.5 0.892853" stroke="#4F8F9B" stroke-width="1.78571" stroke-linecap="round" stroke-linejoin="round"/>
<path d="M50.8928 19.6428L52.6785 17.8571" stroke="#4F8F9B" stroke-width="1.78571" stroke-miterlimit="10" stroke-linecap="round"/>
<path d="M4.46423 17.8571L6.24995 19.6428" stroke="#4F8F9B" stroke-width="1.78571" stroke-miterlimit="10" stroke-linecap="round"/>
</svg>
