<svg width="50" height="50" viewBox="0 0 50 50" fill="none" xmlns="http://www.w3.org/2000/svg">
<path d="M14.1484 8.59375C17.0313 3.90625 22.2187 0.78125 28.125 0.78125C37.1875 0.78125 44.5312 8.125 44.5312 17.1875L49.2187 27.3438V28.9062H44.5312V35.9375C44.5312 38.5234 42.4297 40.625 39.8437 40.625H35.1562V50" stroke="#4F8F9B" stroke-width="2" stroke-miterlimit="10"/>
<path d="M17.9687 50V40.625C17.9687 36.0234 15.7969 31.8516 14.0156 27.3438" stroke="#4F8F9B" stroke-width="2" stroke-linejoin="round"/>
<path d="M35.1562 40.625H32.8125" stroke="#4F8F9B" stroke-width="2" stroke-miterlimit="10"/>
<path d="M32.0312 18.75V22.6562H35.1562V19.5312H36.7188V16.4062H18.75" stroke="#4F8F9B" stroke-width="2" stroke-miterlimit="10"/>
<path d="M8.59375 25.7812C12.9085 25.7812 16.4062 22.2835 16.4062 17.9688C16.4062 13.654 12.9085 10.1562 8.59375 10.1562C4.27903 10.1562 0.78125 13.654 0.78125 17.9688C0.78125 22.2835 4.27903 25.7812 8.59375 25.7812Z" stroke="#4F8F9B" stroke-width="2" stroke-miterlimit="10"/>
<path d="M6.25 20.3125C7.54442 20.3125 8.59375 19.2632 8.59375 17.9688C8.59375 16.6743 7.54442 15.625 6.25 15.625C4.95558 15.625 3.90625 16.6743 3.90625 17.9688C3.90625 19.2632 4.95558 20.3125 6.25 20.3125Z" stroke="#4F8F9B" stroke-width="2" stroke-miterlimit="10"/>
<path d="M16.4062 19.5312H29.6875" stroke="#4F8F9B" stroke-width="2" stroke-miterlimit="10"/>
<path d="M37.5 13.2812H35.9375" stroke="#4F8F9B" stroke-width="2" stroke-miterlimit="10"/>
<path d="M34.375 13.2812H32.8125" stroke="#4F8F9B" stroke-width="2" stroke-miterlimit="10"/>
<path d="M31.25 13.2812H29.6875" stroke="#4F8F9B" stroke-width="2" stroke-miterlimit="10"/>
</svg>
